<svg xmlns="http://www.w3.org/2000/svg" width="256" height="256"><path fill-opacity=".016" d="M0 128.004v128.004l128.25-.254 128.25-.254.254-127.75L257.008 0H0v128.004m.485.496c0 70.4.119 99.053.265 63.672.146-35.38.146-92.98 0-128C.604 29.153.485 58.1.485 128.5" fill="#1976D2" fill-rule="evenodd"/><path fill-opacity=".048" d="M126.25 7.496c-.687.781-1.25 1.692-1.25 2.025 0 .967-5.403 11.927-6.157 12.489-.376.281-.994 1.743-1.372 3.25-.378 1.507-1.089 2.74-1.579 2.74-.491 0-.892.501-.892 1.114 0 .613-4.95 11.157-11 23.431-6.05 12.273-11 22.797-11 23.385 0 .589-.414 1.07-.921 1.07-.506 0-1.196 1.256-1.533 2.791-.869 3.955-5.488 5.964-15.546 6.761-4.675.371-8.95.961-9.5 1.311-.859.547-8.906 1.742-25 3.713-5.097.625-22.191 3.08-30 4.31-3.3.52-7.012.983-8.25 1.03-1.521.057-2.25.705-2.25 2.001 0 1.054.419 2.066.932 2.25.513.183 8.95 8.175 18.75 17.759 9.8 9.585 23.555 23.026 30.568 29.87C60.778 159.072 63 161.745 63 164.134c0 1.591-.436 3.675-.968 4.63-.533.955-1.425 5.111-1.984 9.236-.558 4.125-1.231 8.85-1.495 10.5-.264 1.65-1.058 6.825-1.766 11.5s-1.573 8.95-1.924 9.5c-.35.55-.962 4.375-1.361 8.5-.398 4.125-1.064 7.95-1.479 8.5-.696.921-3.023 16.947-3.023 20.818 0 2.394 3.341 2.118 7.77-.643 2.051-1.278 6.43-3.641 9.73-5.25 3.3-1.609 6.225-3.15 6.5-3.425.275-.275 4.55-2.525 9.5-5s9.225-4.725 9.5-5c.275-.275 4.1-2.277 8.5-4.448 4.4-2.172 12.05-6.152 17-8.845 4.95-2.692 9.9-4.895 11-4.895 1.1 0 6.186 2.292 11.302 5.094 8.654 4.739 11.198 5.791 11.198 4.629 0-.256-2.475-4.546-5.5-9.535s-5.5-9.266-5.5-9.506c0-.239-1.08-2.811-2.4-5.714-11.69-25.721-14.971-56.082-9.269-85.78 1.388-7.231 3.923-16.341 5.705-20.5.471-1.1 1.856-4.475 3.077-7.5 1.222-3.025 5.283-10.694 9.025-17.041l6.804-11.541-5.437-10.959c-2.99-6.028-5.452-11.521-5.471-12.209-.019-.687-.435-1.25-.926-1.25-.49 0-1.201-1.233-1.579-2.74-.378-1.507-.996-2.969-1.372-3.25C137.39 21.438 132 10.48 132 9.492c0-.938-2.727-3.498-3.679-3.454-.451.021-1.383.677-2.071 1.458m26.987 63.254c-18.101 39.933-19.367 85.436-3.515 126.25 7.016 18.061 14.517 29.969 20.794 33.008 2.466 1.194 4.484 2.58 4.484 3.081 0 .501.338.822.75.713 1.365-.361 5.25 1.316 5.25 2.265 0 .513.338.88.75.815 2.097-.331 3.292.242 2.655 1.273-.41.662-.278.884.308.522 1.353-.836 8.572 2.704 7.567 3.71-.429.429-.33.635.22.459 1.404-.451 7.5 2.211 7.5 3.275 0 .484.338.826.75.761 1.791-.283 3.331.177 2.905.868-.255.412.614.815 1.931.894 2.245.134 2.359-.114 1.836-4-.307-2.279-.559-5.614-.56-7.41-.001-1.796-.376-3.034-.834-2.751-.7.433-1.897-6.196-2.524-13.983-.088-1.1-.512-2.789-.94-3.752-.429-.964-.492-2.989-.141-4.5.473-2.039.376-2.361-.377-1.248-.784 1.158-1.037.703-1.112-2-.053-1.925-.308-4.85-.567-6.5-.26-1.65-.526-4.475-.593-6.278-.078-2.092-.415-2.816-.933-2-.514.811-.873-.001-.982-2.222-.095-1.925-.337-4.85-.538-6.5-.202-1.65-.401-4.462-.443-6.248-.042-1.786-.415-3.038-.829-2.782-.414.255-1.248-3.008-1.853-7.253l-1.101-7.717 13.635-13.696c7.5-7.533 14.073-13.426 14.607-13.096.535.331.691.147.348-.408-.802-1.298 3.691-5.565 4.8-4.559.459.417.543.247.186-.378-.673-1.178 1.617-3.741 2.529-2.83.283.283 1.142-.283 1.907-1.259 1.295-1.649 1.252-1.669-.607-.291-1.972 1.462-1.974 1.452-.131-.711 1.028-1.206 2.358-2.098 2.955-1.982.597.115 1.126-.465 1.176-1.29.05-.825.672-1.375 1.382-1.221.709.153 1.529-.635 1.821-1.75.292-1.116.995-2.029 1.564-2.029 1.142 0 16.705-16.054 16.722-17.25.006-.412-.862-.75-1.93-.75s-2.226-.462-2.575-1.026c-.349-.564-1.613-.916-2.809-.78-4.177.472-18.665-1.401-18.086-2.338.335-.542-.45-.678-1.863-.323-1.343.337-4.055-.061-6.026-.885-1.971-.823-3.722-1.172-3.892-.775-.169.397-2.504.538-5.187.313-2.684-.224-4.38-.717-3.768-1.095.611-.378-.568-.76-2.621-.848-2.052-.089-5.195-.348-6.982-.577-1.787-.229-5.162-.479-7.5-.556-2.862-.095-3.798-.427-2.865-1.018.85-.538-.404-.675-3.25-.354-3.095.349-4.635.145-4.635-.612 0-.623-1.238-1.05-2.75-.947-5.105.347-9.371-.173-8.815-1.074.305-.493-.142-1.162-.993-1.489-1.016-.39-1.331-.169-.92.645.345.682-.068.385-.916-.658-.848-1.044-1.305-2.281-1.015-2.75.29-.469.002-.853-.639-.853-.643 0-.899-.696-.57-1.552.341-.89.173-1.291-.393-.941-.89.55-1.421-.772-1.107-2.757.065-.412-.252-.75-.704-.75-.452 0-1.838-2.25-3.081-5-1.243-2.75-2.607-5-3.03-5-.424 0-2.148 3.037-3.83 6.75" fill="#1976D2" fill-rule="evenodd"/><path fill-opacity=".552" d="M120.587 20.26c-10.615 21.863-31.655 64.141-32.184 64.67-.26.26-2.819.784-5.687 1.164-5.506.73-28.418 4.023-45.216 6.497-5.5.81-13.375 1.907-17.5 2.438-8.858 1.14-20 3.079-20 3.481 0 .156 6.163 6.292 13.695 13.637 7.532 7.344 21.804 21.292 31.715 30.995l18.021 17.642-1.232 8.858c-.678 4.872-1.886 12.458-2.686 16.858-1.697 9.332-4.985 28.364-6.997 40.5a979.815 979.815 0 01-2.579 14.801c-.643 3.465-.921 6.548-.618 6.851.549.55 6.29-2.216 25.181-12.131 8.975-4.711 27.551-14.402 47-24.519l7-3.641 10.343 5.393c5.688 2.967 10.54 5.197 10.781 4.955.242-.241-1.162-2.862-3.118-5.824-13.65-20.663-21.702-48.921-21.662-76.029.04-27.078 6.751-50.276 21.658-74.859l5.727-9.445-4.454-9.026a4850.875 4850.875 0 01-11.364-23.266c-3.801-7.832-7.361-14.24-7.911-14.24-.55 0-4.111 6.408-7.913 14.24" fill="#1976D2" fill-rule="evenodd"/><path fill-opacity=".505" d="M108.754 45.838l-19.71 39.974-6.772 1.074c-7.083 1.124-15.027 2.277-31.772 4.609-5.5.767-16.525 2.346-24.5 3.51-7.975 1.164-16.637 2.372-19.25 2.683C4.138 98 2 98.605 2 99.033c0 .428 14.173 14.647 31.496 31.598 24.387 23.862 31.365 31.233 30.913 32.655-.32 1.01-1.46 7.096-2.533 13.525a5094.347 5094.347 0 01-3.499 20.689L55.54 214c-4.046 23.518-5.541 33.332-5.14 33.733.248.248 5.097-2.004 10.775-5.004 10.884-5.751 26.131-13.705 49.325-25.731 7.7-3.993 14.428-7.651 14.95-8.129 1.774-1.623 4.228-.877 13.146 3.996 4.897 2.676 9.055 4.737 9.24 4.581.185-.157-1.849-4.034-4.52-8.616-8.202-14.07-12.584-25.526-16.956-44.33-2.654-11.417-2.654-42.37 0-54.5 2.431-11.111 7.051-24.844 11.153-33.154 3.98-8.064 11.405-20.678 12.612-21.423 1.93-1.193.418-5.103-10.393-26.871L128.464 5.865l-19.71 39.973" fill="#1976D2" fill-rule="evenodd"/></svg>