<?xml version="1.0" encoding="UTF-8" standalone="no"?>
<svg
   xmlns:dc="http://purl.org/dc/elements/1.1/"
   xmlns:cc="http://creativecommons.org/ns#"
   xmlns:rdf="http://www.w3.org/1999/02/22-rdf-syntax-ns#"
   xmlns:svg="http://www.w3.org/2000/svg"
   xmlns="http://www.w3.org/2000/svg"
   xmlns:sodipodi="http://sodipodi.sourceforge.net/DTD/sodipodi-0.dtd"
   xmlns:inkscape="http://www.inkscape.org/namespaces/inkscape"
   version="1.1"
   id="svg2"
   xml:space="preserve"
   width="1203.0458"
   height="415.41479"
   viewBox="0 0 1203.0458 415.41479"
   sodipodi:docname="5539.svg"
   inkscape:version="1.0.1 (3bc2e813f5, 2020-09-07)"><metadata
     id="metadata8"><rdf:RDF><cc:Work
         rdf:about=""><dc:format>image/svg+xml</dc:format><dc:type
           rdf:resource="http://purl.org/dc/dcmitype/StillImage" /><dc:title></dc:title></cc:Work></rdf:RDF></metadata><defs
     id="defs6" /><sodipodi:namedview
     pagecolor="#ffffff"
     bordercolor="#666666"
     borderopacity="1"
     objecttolerance="10"
     gridtolerance="10"
     guidetolerance="10"
     inkscape:pageopacity="0"
     inkscape:pageshadow="2"
     inkscape:window-width="1528"
     inkscape:window-height="836"
     id="namedview4"
     showgrid="false"
     fit-margin-top="0"
     fit-margin-left="0"
     fit-margin-right="0"
     fit-margin-bottom="0"
     inkscape:zoom="0.25874999"
     inkscape:cx="1855.6119"
     inkscape:cy="811.33239"
     inkscape:window-x="72"
     inkscape:window-y="27"
     inkscape:window-maximized="1"
     inkscape:current-layer="g10" /><g
     id="g10"
     inkscape:groupmode="layer"
     inkscape:label="ink_ext_XXXXXX"
     transform="matrix(1.3333333,0,0,-1.3333333,-144.38812,2144.6657)"><g
       id="g14"
       transform="scale(0.184049)" /><g
       id="g1460"
       transform="matrix(0.32417643,0,0,0.26367311,73.185672,1184.3813)"><g
         id="g18"
         transform="scale(0.172891)"><path
           d="m 15808.3,2477.97 -13671.76,3.53 c 0,0 -1828.525,1625.47 -309.24,3385.34 1347.92,1560.95 2919.42,1454.14 4072.53,820.96 491.18,-269.92 1907.15,-33.44 3112.47,1555.07 928.97,1224.7 3152.4,1337.37 4723.3,602.08 72.8,-34.04 143.8,-69.82 213.6,-107.38 27,-14.68 54,-29.35 80.4,-44.59 73.9,-42.26 146.1,-86.28 216,-132.63 241.2,-160.21 456.5,-345.05 635.5,-552.79 1.2,-1.18 2.3,-2.34 2.9,-3.53 497,-578 713,-1335.58 430.2,-2241.63 -14.7,-46.38 -27,-91.56 -36.4,-134.99 -0.6,-2.32 -1.2,-4.69 -1.8,-7 0,-0.64 -0.6,-1.8 -0.6,-2.37 -16.4,-70.39 -28.1,-137.9 -34.6,-202.44 -11.1,-107.99 -9.4,-207.76 1.8,-301.06 v -2.31 c 8.8,-72.19 23.5,-140.26 43.4,-205.39 76.3,-252.94 224.2,-458.32 374.4,-654.34 0.6,-1.16 1.7,-2.37 2.3,-3.53 48.7,-63.97 97.4,-126.15 143.8,-189.54 0.6,-1.16 1.2,-2.32 2.4,-3.53 291.6,-397.25 491.1,-812.71 -0.6,-1577.93"
           style="fill:#ebf3fa;fill-opacity:1;fill-rule:nonzero;stroke:none"
           id="path20" /></g><g
         id="g22"
         transform="scale(0.177399)"><path
           d="M 16283.1,2406.33 H 627.332 c -9.295,0 -16.894,7.61 -16.894,16.91 v 3.84 c 0,9.3 7.599,16.91 16.894,16.91 H 16283.1 c 9.3,0 16.9,-7.61 16.9,-16.91 v -3.84 c 0,-9.3 -7.6,-16.91 -16.9,-16.91"
           style="fill:#2e3552;fill-opacity:1;fill-rule:nonzero;stroke:none"
           id="path24" /></g><g
         id="g26"
         transform="scale(0.165435)"><path
           d="m 16004.4,6022.12 c -15.9,-50.89 -29.4,-100.58 -39.9,-148.39 h -4525.9 v 3369.88 h 2916.1 c 105.5,-49.06 207.9,-102.41 307.3,-158.83 77.2,-44.16 152.6,-90.16 225.7,-138.61 252,-167.42 477.1,-360.6 664.1,-577.7 1.3,-1.22 2.5,-2.45 3.1,-3.68 519.4,-604.06 745.1,-1395.79 449.5,-2342.67"
           style="fill:#aacae0;fill-opacity:1;fill-rule:nonzero;stroke:none"
           id="path28" /></g><g
         id="g30"
         transform="scale(0.162024)"><path
           d="m 16300,5994.86 c -17.5,-75.12 -30.1,-147.14 -36.9,-216.02 h -4906.8 c 0,60.11 25,115.17 64.5,154.67 39.5,39.44 94,63.87 154.7,63.87 h 4013.2 c 255.4,0 492.1,-0.67 711.3,-2.52"
           style="fill:#aacae0;fill-opacity:1;fill-rule:nonzero;stroke:none"
           id="path32" /></g><g
         id="g34"
         transform="scale(0.119184)"><path
           d="m 16300,3917.3 -136.3,-34.48 -121.4,127.11 c 0,0 -58.5,56.22 -137.4,141.05 -152.7,164.36 -382.2,436.21 -410.6,614 -24.3,151.7 -21.2,412.22 -13.9,610.91 5.6,154.21 13.9,271.26 13.9,271.26 1.7,-5.37 58.7,-128.37 141.6,-306.67 l 316.2,-678.03 c 181.5,-389.06 347.9,-745.15 347.9,-745.15"
           style="fill:#2b478b;fill-opacity:1;fill-rule:nonzero;stroke:none"
           id="path36" /></g><g
         id="g38"
         transform="scale(0.121759)"><path
           d="m 16300,3556.13 h -626.4 c 0,0 -15,95.43 17.7,167.87 31.4,69.48 60.1,109.48 11.8,201.13 39.7,-40.98 161.6,-102.82 252.2,-90.67 11.1,-17.99 71.6,-114.24 108.7,-140.85 40.9,-29.48 223.4,-18.97 236,-137.48"
           style="fill:#233862;fill-opacity:1;fill-rule:nonzero;stroke:none"
           id="path40" /></g><g
         id="g42"
         transform="scale(0.11664)"><path
           d="m 16300,4764.15 -48.2,-522.63 c -156,167.95 -390.5,445.73 -419.6,627.4 -24.7,155.01 -21.6,421.21 -14.1,624.23 54.6,1.46 108,-9.61 158.9,-36.18 l 323,-692.82"
           style="fill:#233862;fill-opacity:1;fill-rule:nonzero;stroke:none"
           id="path44" /></g><g
         id="g46"
         transform="scale(0.110879)"><path
           d="m 15630.7,7365.36 669.3,-204.55 v -103.36 l -765.1,0.9 95.8,307.01"
           style="fill:#ed985f;fill-opacity:1;fill-rule:nonzero;stroke:none"
           id="path48" /></g><g
         id="g50"
         transform="scale(0.106522)"><path
           d="m 16300,6111.69 h -1680.6 v 1658.62 c 0,292.99 237.5,530.41 530.5,530.41 h 619.6 c 293,0 530.5,-237.42 530.5,-530.41 V 6111.69"
           style="fill:#eac3a0;fill-opacity:1;fill-rule:nonzero;stroke:none"
           id="path52" /></g><g
         id="g54"
         transform="scale(0.113941)"><path
           d="m 16300,5728.93 c 0,-25.19 -9.7,-47.93 -25.1,-64.34 -15.5,-16.5 -36.8,-26.59 -60.4,-26.59 H 13753 c -47.2,0 -85.5,40.64 -85.5,90.93 0,25.18 9.6,47.91 25,64.32 15.5,16.5 36.8,26.6 60.5,26.6 h 2461.5 c 47.1,0 85.5,-40.64 85.5,-90.92"
           style="fill:#eac3a0;fill-opacity:1;fill-rule:nonzero;stroke:none"
           id="path56" /></g><g
         id="g58"
         transform="scale(0.105445)"><path
           d="m 16300,6190.54 c 0,-27.22 -10.3,-51.78 -27,-69.52 -16.7,-17.83 -39.8,-28.73 -65.4,-28.73 h -1346.5 c -51,0 -92.3,43.91 -92.3,98.25 0,27.22 10.3,51.78 27,69.51 16.7,17.83 39.7,28.74 65.3,28.74 h 1346.5 c 51.1,0 92.4,-43.91 92.4,-98.25"
           style="fill:#d3aa89;fill-opacity:1;fill-rule:nonzero;stroke:none"
           id="path60" /></g><path
         d="m 1590.96,642.4 -5.55,-38.12 -24.31,-166.81 c -0.39,-2.3 -2.26,-3.97 -4.46,-3.97 h -0.08 c -1.68,0 -3,1.53 -2.86,3.31 l 15.08,184.75 1.69,20.84 h 20.49"
         style="fill:#eac3a0;fill-opacity:1;fill-rule:nonzero;stroke:none;stroke-width:0.1"
         id="path62" /><path
         d="m 1590.96,642.4 -5.55,-38.12 c -5.13,11.33 -12.34,15.65 -16.63,17.28 l 1.69,20.84 h 20.49"
         style="fill:#d3aa89;fill-opacity:1;fill-rule:nonzero;stroke:none;stroke-width:0.1"
         id="path64" /><g
         id="g66"
         transform="scale(0.106246)"><path
           d="m 15948,6046.34 52.2,-358.78 228.7,-1570.04 c 3.7,-21.65 21.4,-37.37 42.1,-37.37 h 0.8 c 15.8,0 28.2,14.4 26.8,31.16 l -141.9,1738.89 -16,196.14 H 15948"
           style="fill:#eac3a0;fill-opacity:1;fill-rule:nonzero;stroke:none"
           id="path68" /></g><g
         id="g70"
         transform="scale(0.105312)"><path
           d="m 16089.4,6099.95 52.7,-361.97 c 48.6,107.59 117.2,148.61 157.9,164.09 l -16.1,197.88 h -194.5"
           style="fill:#d3aa89;fill-opacity:1;fill-rule:nonzero;stroke:none"
           id="path72" /></g><g
         id="g74"
         transform="scale(0.112767)"><path
           d="m 15968.3,5696.71 49.2,-338.04 215.5,-1479.25 c 3.5,-20.4 20.2,-35.21 39.6,-35.21 h 0.7 c 14.9,0 26.7,13.57 25.4,29.36 l -133.7,1638.33 -15,184.81 h -181.7"
           style="fill:#eac3a0;fill-opacity:1;fill-rule:nonzero;stroke:none"
           id="path76" /></g><g
         id="g78"
         transform="scale(0.111833)"><path
           d="m 16101.6,5744.27 49.6,-340.86 c 45.9,101.31 110.4,139.94 148.8,154.51 l -15.2,186.35 h -183.2"
           style="fill:#d3aa89;fill-opacity:1;fill-rule:nonzero;stroke:none"
           id="path80" /></g><g
         id="g82"
         transform="scale(0.104626)"><path
           d="m 15850.5,9650.44 c 0,0 -185.4,-157.85 -15.4,-339.64 0,0 -141.6,-13.85 -189.6,25.33 0,0 9.4,-19.11 18.1,-27.72 0,0 -158.3,-5.63 -223.7,43.68 -65.4,49.42 -23.4,859.91 416.2,769.21 0,0 372.6,28.2 337.9,-402.98 -34.7,-431.12 106,-431.22 106,-431.22 0,0 -39.1,-19.21 -58,-19.21 0,0 -27.6,10.51 -33.1,25.81 0,0 5.5,-23.99 12.5,-31.64 0,0 -151.8,-14.43 -227.6,42.92 -75.8,57.34 -164.9,256.51 -143.3,345.46"
           style="fill:#233862;fill-opacity:1;fill-rule:nonzero;stroke:none"
           id="path84" /></g><g
         id="g86"
         transform="scale(0.10694)"><path
           d="m 14921.9,6894.67 c 145,325.05 214.4,416.97 216.8,519.17 1.9,80.89 23.2,1395.08 171.5,1425.47 41.2,10.94 111.2,159.9 110.2,399.94 l 18.7,-3.65 312.1,-61.81 c 0,0 -7.1,-98.27 -7.3,-190.76 -0.2,-77.14 3.9,-155.6 21.4,-164.86 22.5,-2.05 42.9,-6.07 42.9,-6.07 0,0 264.2,-185.53 281.2,-437.16 22.8,-336.17 -214.1,-734.61 -4,-1406.39 214.6,-686.18 -1243.5,-253.51 -1163.5,-73.88"
           style="fill:#ffb27d;fill-opacity:1;fill-rule:nonzero;stroke:none"
           id="path88" /></g><g
         id="g90"
         transform="scale(0.10334)"><path
           d="m 16300,9493.43 c 0,0 -7.4,-101.7 -7.5,-197.4 -180.8,5.03 -276.3,169.92 -315.5,261.37 l 323,-63.97"
           style="fill:#ee9849;fill-opacity:1;fill-rule:nonzero;stroke:none"
           id="path92" /></g><g
         id="g94"
         transform="scale(0.105046)"><path
           d="m 15684.7,9436.72 c 0,0 -93.2,147.27 -115.6,273.17 -15.9,89.89 29.9,423.11 364.7,375.11 0,0 97.2,-9.6 188.6,-71.3 72.7,-49.13 177.6,-155.13 60.3,-445.88 l -30.4,-98.25 -467.6,-32.85"
           style="fill:#233862;fill-opacity:1;fill-rule:nonzero;stroke:none"
           id="path96" /></g><g
         id="g98"
         transform="scale(0.104731)"><path
           d="m 16143,9277.84 c 0,0 -422,-6.97 -422.3,255.89 -0.3,262.85 -54.9,438.98 214.6,454.54 269.3,15.53 321.8,-84.68 343.2,-172.41 21.5,-87.7 -25.7,-529.43 -135.5,-538.02"
           style="fill:#ffb27d;fill-opacity:1;fill-rule:nonzero;stroke:none"
           id="path100" /></g><g
         id="g102"
         transform="scale(0.103622)"><path
           d="m 16300,10101.7 c 0,0 -116.8,-311.7 -296,-357.78 -179.2,-46.1 -256.9,1.93 -256.9,1.93 0,0 137.4,109.2 166,299.85 0,0 298.9,204.3 386.9,56"
           style="fill:#233862;fill-opacity:1;fill-rule:nonzero;stroke:none"
           id="path104" /></g><g
         id="g106"
         transform="scale(0.105141)"><path
           d="m 16036,9930.82 c 0,0 86,-68.59 107,-135.26 20.9,-66.68 30.3,-203.94 70.4,-199.27 0,0 86.6,208.79 -10.8,326.9 -103.4,125.21 -166.6,7.63 -166.6,7.63"
           style="fill:#233862;fill-opacity:1;fill-rule:nonzero;stroke:none"
           id="path108" /></g><g
         id="g110"
         transform="scale(0.103541)"><path
           d="m 16300,10073.7 c 0,0 -83.3,-326.62 -309.5,-431.25 0,0 226.2,200.7 245.5,416.35 19.2,215.6 64,14.9 64,14.9"
           style="fill:#233862;fill-opacity:1;fill-rule:nonzero;stroke:none"
           id="path112" /></g><g
         id="g114"
         transform="scale(0.107134)"><path
           d="m 15726.8,7960.66 c 17.4,-426.29 81.3,-848.47 266.9,-821.31 227.5,33.23 286.7,245.58 298.8,403.42 7.5,98.29 -115.2,175.95 -133.4,192.56 -86,79.53 -60.4,858.55 -103,939.48 -42.6,80.83 -318.9,132.82 -318.9,132.82 0,0 -27.8,-425.54 -10.4,-846.97"
           style="fill:#ffb93e;fill-opacity:1;fill-rule:nonzero;stroke:none"
           id="path116" /></g><g
         id="g118"
         transform="scale(0.107085)"><path
           d="m 15734,7964.31 c 17.5,-426.49 81.3,-848.86 267,-821.69 227.7,33.25 286.9,245.7 299,403.61 -55.8,2.8 -154.3,16.43 -193.4,76.11 -55.9,85.35 -230.6,634.72 -230.6,634.72 0,0 -68.6,-123.26 -142,-292.75"
           style="fill:#ffa412;fill-opacity:1;fill-rule:nonzero;stroke:none"
           id="path120" /></g><g
         id="g122"
         transform="scale(0.116033)"><path
           d="m 13899.8,6684.9 c 0,0 -398.7,-660.84 -206.3,-878.8 192.3,-217.95 1668.9,-147.37 1836.7,-254.5 167.8,-107.04 -98.1,-234.58 620.3,-1563.34 h 149.5 c 0,0 -196.2,1466.13 -240.5,1832.06 -36.1,299.65 -2159.7,864.58 -2159.7,864.58"
           style="fill:#2b478b;fill-opacity:1;fill-rule:nonzero;stroke:none"
           id="path124" /></g><g
         id="g126"
         transform="scale(0.106023)"><path
           d="m 15265.2,7531.27 c 1.3,-8.49 2.3,-20.19 3,-30.47 0.8,-10 -82.5,-176.28 -116.6,-244.19 -9.5,-18.67 -163.6,-316.91 -152.2,-334.55 70.6,-109.88 521.8,-192.31 1247.2,87.43 0,0 53.4,1399.13 -18,1562.58 -35.4,81.31 -220.3,248.82 -294.3,321.16 -16.6,16.23 -15,48.39 -8.6,77.82 5.4,24.9 -16.9,46.78 -41.6,40.36 -47.6,-12.35 -133.1,-10.28 -224.9,19.91 -45.7,14.9 -92.8,36.68 -137.4,67.15 -13,8.86 -30.7,0.66 -32.7,-14.9 -6.9,-56.59 -24,-159.97 -55.3,-159.97 -43,0.19 -300.4,-34.89 -356.2,-98.18 -9.7,-11.04 185,-1275.19 187.6,-1294.15"
           style="fill:#ffb93e;fill-opacity:1;fill-rule:nonzero;stroke:none"
           id="path128" /></g><g
         id="g130"
         transform="scale(0.103161)"><path
           d="m 15862,9171.22 c 0,0 226,-143.08 396.9,-109.25 0,0 41.1,25.89 -15.5,52.06 -53.1,24.33 -176.8,96.65 -149.7,167.89 -46.9,15.32 -95.4,37.71 -141.2,69.02 -13.4,9.11 -31.5,0.68 -33.6,-15.31 -7.1,-58.17 -24.7,-164.41 -56.9,-164.41"
           style="fill:#ffa412;fill-opacity:1;fill-rule:nonzero;stroke:none"
           id="path132" /></g><g
         id="g134"
         transform="scale(0.129483)"><path
           d="m 16273.7,3341.59 c -16.9,0 -31.4,11.12 -34.2,26.33 l -167.8,892.32 -241.3,1283.4 -67.4,358.89 171.9,4.56 29.8,-208.29 209.3,-1464.05 124.1,-867.76 c 1.9,-13.51 -9.5,-25.4 -24.4,-25.4"
           style="fill:#efcbab;fill-opacity:1;fill-rule:nonzero;stroke:none"
           id="path136" /></g><g
         id="g138"
         transform="scale(0.12682)"><path
           d="m 16300,5818.5 c -113.7,-47.07 -137,-158.41 -137,-158.41 l -68.9,366.42 175.5,4.65 30.4,-212.66"
           style="fill:#c69d7f;fill-opacity:1;fill-rule:nonzero;stroke:none"
           id="path140" /></g><g
         id="g142"
         transform="scale(0.108204)"><path
           d="m 15760.1,3998.73 c 17.8,0 33.1,13.31 36.1,31.51 l 177.4,1067.8 255.1,1535.8 71.3,429.47 -181.7,5.45 -31.5,-249.25 -221.3,-1751.97 -131.3,-1038.4 c -2,-16.18 10.2,-30.41 25.9,-30.41"
           style="fill:#efcbab;fill-opacity:1;fill-rule:nonzero;stroke:none"
           id="path144" /></g><g
         id="g146"
         transform="scale(0.108204)"><path
           d="m 16086.8,6819.51 c 117.7,-55.18 141.9,-185.67 141.9,-185.67 l 71.3,429.47 -181.7,5.45 -31.5,-249.25"
           style="fill:#c69d7f;fill-opacity:1;fill-rule:nonzero;stroke:none"
           id="path148" /></g><g
         id="g150"
         transform="scale(0.123899)"><path
           d="m 16298,3518.76 -129.7,906.87 -218.7,1530.04 -31.2,217.68 -179.6,-4.77 70.5,-375.06 252.1,-1341.26 175.3,-932.53 c 3,-15.9 18.1,-27.52 35.8,-27.52 15.6,0 27.5,12.42 25.5,26.55"
           style="fill:#c69d7f;fill-opacity:1;fill-rule:nonzero;stroke:none"
           id="path152" /></g><g
         id="g154"
         transform="scale(0.103915)"><path
           d="m 16078,7101.01 -230.5,-1824.28 -136.6,-1081.27 c -2.2,-16.84 10.5,-31.66 26.9,-31.66 18.6,0 34.5,13.85 37.6,32.81 l 184.7,1111.88 265.6,1599.19 74.3,447.2 -189.2,5.67 -32.8,-259.54"
           style="fill:#c69d7f;fill-opacity:1;fill-rule:nonzero;stroke:none"
           id="path156" /></g><g
         id="g158"
         transform="scale(0.130402)"><path
           d="m 16300,5905.44 v -88.96 c 0,-52.45 -40.4,-95.47 -89.9,-95.47 h -3681.7 c -49.5,0 -89.9,43.02 -89.9,95.47 v 88.96 c 0,52.45 40.4,95.4 89.9,95.4 h 3681.7 c 49.5,0 89.9,-42.95 89.9,-95.4"
           style="fill:#c69d7f;fill-opacity:1;fill-rule:nonzero;stroke:none"
           id="path160" /></g><g
         id="g162"
         transform="scale(0.130402)"><path
           d="m 16300,5905.44 v -88.96 c 0,-52.53 -40.4,-95.47 -89.9,-95.47 h -2729.5 c -49.5,0 -89.9,42.94 -89.9,95.47 v 88.96 c 0,52.45 40.4,95.4 89.9,95.4 h 2729.5 c 49.5,0 89.9,-42.95 89.9,-95.4"
           style="fill:#efcbab;fill-opacity:1;fill-rule:nonzero;stroke:none"
           id="path164" /></g><g
         id="g166"
         transform="scale(0.107846)"><path
           d="m 14972.8,8701.85 c 0,0 -168.4,69.27 -166.7,-254.25 1.6,-323.42 234.9,-1166.29 456,-1178.99 221.1,-12.71 1037.9,-12.71 1037.9,-12.71 l -23.1,102.09 c 0,0 -881.9,229.5 -894.2,255.83 -12.4,26.33 -409.9,1088.03 -409.9,1088.03"
           style="fill:#ffb27d;fill-opacity:1;fill-rule:nonzero;stroke:none"
           id="path168" /></g><g
         id="g170"
         transform="scale(0.118569)"><path
           d="m 16300,3651.79 h -643.3 c 0,0 -15.4,98 18.2,172.39 32.2,71.35 82.6,103.82 70.6,190.18 40.8,-42.08 107.4,-89.23 200.4,-76.75 11.4,-18.47 73.6,-117.31 111.6,-144.64 42.1,-30.27 229.5,-19.48 242.5,-141.18"
           style="fill:#29436d;fill-opacity:1;fill-rule:nonzero;stroke:none"
           id="path172" /></g><g
         id="g174"
         transform="scale(0.103587)"><path
           d="m 15708.6,8535.96 c 0,0 591.4,-428.92 517,-742.18 -74.5,-313.37 -550.9,25.58 -567.2,165.56 -16.3,139.88 50.2,576.62 50.2,576.62"
           style="fill:#ffa412;fill-opacity:1;fill-rule:nonzero;stroke:none"
           id="path176" /></g><g
         id="g178"
         transform="scale(0.104071)"><path
           d="m 15664.7,9085.66 c 0,0 -281.5,-12.87 -334.5,-132.41 -61.2,-138.27 113.7,-1303.82 217.3,-1394.05 103.7,-90.13 649.8,-40.55 649.8,-40.55 0,0 102.7,149.61 51.8,272.8 0,0 -272.4,99.45 -294.2,130.87 -21.8,31.42 -290.2,1163.34 -290.2,1163.34"
           style="fill:#ffb93e;fill-opacity:1;fill-rule:nonzero;stroke:none"
           id="path180" /></g><g
         id="g182"
         transform="scale(0.113226)"><path
           d="m 15931,7008.35 c 0,0 178,56.17 213.7,41.86 35.9,-14.39 155.3,-138.57 155.3,-138.57 h -347 l -22,96.71"
           style="fill:#ed985f;fill-opacity:1;fill-rule:nonzero;stroke:none"
           id="path184" /></g><g
         id="g186"
         transform="scale(0.109226)"><path
           d="m 16287.3,7164.24 c -4.1,0 -7.9,2.2 -9.9,6.05 l -204.9,397.52 c -2.9,5.49 -0.7,12.18 4.8,15.02 5.4,2.83 12.2,0.64 15.1,-4.77 l 204.9,-397.61 c 2.7,-5.4 0.6,-12.18 -4.9,-15.02 -1.6,-0.82 -3.4,-1.19 -5.1,-1.19"
           style="fill:#2b478b;fill-opacity:1;fill-rule:nonzero;stroke:none"
           id="path188" /></g><g
         id="g190"
         transform="scale(0.110256)"><path
           d="m 15921.1,7197.13 c 0,0 182.6,57.69 219.5,42.99 36.8,-14.78 159.4,-142.3 159.4,-142.3 h -356.3 l -22.6,99.31"
           style="fill:#ffb27d;fill-opacity:1;fill-rule:nonzero;stroke:none"
           id="path192" /></g><g
         id="g194"
         transform="scale(0.124318)"><path
           d="m 16300,6294.96 h -832.1 v 45.69 h 832.1 v -45.69"
           style="fill:#2b478b;fill-opacity:1;fill-rule:nonzero;stroke:none"
           id="path196" /></g><g
         id="g198"
         transform="scale(0.121759)"><path
           d="m 16300,6427.29 h -849.5 v 46.65 h 849.5 v -46.65"
           style="fill:#c0d2dd;fill-opacity:1;fill-rule:nonzero;stroke:none"
           id="path200" /></g><g
         id="g202"
         transform="scale(0.123538)"><path
           d="m 16300,6380.71 h -837.3 v 45.97 h 837.3 v -45.97"
           style="fill:#ee9849;fill-opacity:1;fill-rule:nonzero;stroke:none"
           id="path204" /></g><g
         id="g206"
         transform="scale(0.120979)"><path
           d="m 16300,6515.67 h -855 v 46.95 h 855 v -46.95"
           style="fill:#d8e5ef;fill-opacity:1;fill-rule:nonzero;stroke:none"
           id="path208" /></g><g
         id="g210"
         transform="scale(0.108297)"><path
           d="m 15300.8,6732.23 c 0,55.77 29.2,106.84 76.7,136.02 77.1,47.27 207.8,102.03 385.1,85.87 299.2,-27.24 361.1,-195.57 367.1,-324.2 6,-128.72 100.9,-317 120.7,-460.31 19.9,-143.4 49.6,-507.49 -163.4,-530.21 -213.1,-22.62 -923.7,25.4 -923.7,25.4 0,0 -160.5,198.8 15.5,567.51 104.5,218.75 121.8,402.6 122,499.92"
           style="fill:#d37129;fill-opacity:1;fill-rule:nonzero;stroke:none"
           id="path212" /></g><g
         id="g214"
         transform="scale(0.104373)"><path
           d="m 15976.8,7181.84 59.2,6.23 c 0,0.09 -1.3,41.48 20.5,72.05 16.6,23.37 43.5,36.02 80,37.17 34.5,1.34 61.7,-9.3 78.7,-31.62 24.2,-31.33 23.5,-77.99 23.5,-78.56 l 59.2,-1.92 c 0.1,3.26 2.1,79.24 -39.8,134.62 -28.6,38.22 -69.9,55.37 -122.3,54.89 -53.7,-2.01 -95.2,-23.37 -123.3,-63.71 -38.9,-55.57 -35.8,-126.28 -35.7,-129.15"
           style="fill:#d37129;fill-opacity:1;fill-rule:nonzero;stroke:none"
           id="path216" /></g><g
         id="g218"
         transform="scale(0.107336)"><path
           d="m 15152.8,5719.78 c 0,0 717.2,-48.91 932.2,-25.62 215,22.55 185.1,389.99 164.5,534.96 -19.8,144.31 -115.3,334.37 -121.8,464.43 -0.8,24.69 -3.9,51.61 -10.9,77.98 -27.6,111.43 -116,226.76 -358.9,248.84 -179.4,16.4 -310.8,-39.13 -389,-86.92 -47.6,-29.44 -77.5,-80.87 -77.5,-136.95 -0.3,-11.56 0.1,-25.44 -0.3,-39.23 -4.5,-105.09 -29.7,-271.94 -122.7,-465.36 -177.7,-371.63 -15.6,-572.13 -15.6,-572.13"
           style="fill:#f1a34f;fill-opacity:1;fill-rule:nonzero;stroke:none"
           id="path220" /></g><g
         id="g222"
         transform="scale(0.106371)"><path
           d="m 16066.9,5914.38 c -10.2,0 -20.7,0.47 -31.7,1.23 -206.4,15.32 -168.7,331.01 -168.7,331.01 l 432.7,-11.94 c 0.8,-192.72 -51.7,-320.3 -232.3,-320.3"
           style="fill:#e78b37;fill-opacity:1;fill-rule:nonzero;stroke:none"
           id="path224" /></g><g
         id="g226"
         transform="scale(0.106366)"><path
           d="m 16300,6235 c 0,0 -77.4,-110.93 -212.9,-103.98 -135.5,6.96 -219.8,115.92 -219.8,115.92 L 16300,6235"
           style="fill:#d37129;fill-opacity:1;fill-rule:nonzero;stroke:none"
           id="path228" /></g><g
         id="g230"
         transform="scale(0.102975)"><path
           d="m 16059.2,6124.22 c -10.5,0 -21.4,0.38 -32.8,1.26 -213.1,15.92 -174.2,341.92 -174.2,341.92 l 446.9,-12.33 c 0.9,-199.08 -53.3,-330.85 -239.9,-330.85"
           style="fill:#e78b37;fill-opacity:1;fill-rule:nonzero;stroke:none"
           id="path232" /></g><g
         id="g234"
         transform="scale(0.102969)"><path
           d="m 16300,6455.42 c 0,0 -79.9,-114.6 -219.9,-107.41 -140,7.19 -227,119.74 -227,119.74 l 446.9,-12.33"
           style="fill:#d37129;fill-opacity:1;fill-rule:nonzero;stroke:none"
           id="path236" /></g><g
         id="g238"
         transform="scale(0.10613)"><path
           d="m 15854.8,6608.78 c -181.4,0 -313,123.43 -389.9,225.29 0.1,5.46 0.2,10.93 0.2,16.3 0,3.39 0,6.69 0,9.98 0,4.71 0,9.15 0.1,13.39 0,56.72 30.2,108.73 78.4,138.51 69.4,42.4 180.2,90.83 328.9,90.83 20.7,0 42.2,-0.95 64.5,-2.92 245.7,-22.34 335,-138.98 363,-251.68 0,0 -131.7,-238.85 -442.6,-239.7 -0.9,0 -1.8,0 -2.6,0"
           style="fill:#e78b37;fill-opacity:1;fill-rule:nonzero;stroke:none"
           id="path240" /></g><g
         id="g242"
         transform="scale(0.103549)"><path
           d="m 16261,6708.41 v 0 c 20.1,-0.58 37,15.36 37.6,35.44 l 0.8,33.13 c 0.6,20.09 -15.4,36.99 -35.4,37.47 -20.1,0.58 -37,-15.35 -37.6,-35.44 l -0.9,-33.13 c -0.5,-20.08 15.5,-36.98 35.5,-37.47"
           style="fill:#d86713;fill-opacity:1;fill-rule:nonzero;stroke:none"
           id="path244" /></g><g
         id="g246"
         transform="scale(0.103476)"><path
           d="m 16277.6,7309.52 -2.1,0.09 c -31.6,2.9 -56.6,15.85 -74,38.46 -35.4,46.01 -24.4,115.4 -23.9,118.29 1.9,11.7 13,19.62 24.7,17.69 11.6,-1.94 19.5,-12.95 17.7,-24.65 -0.2,-0.77 -8.4,-54.21 15.6,-85.23 10,-12.86 24.4,-20.01 43.9,-21.84 11.8,-1.07 20.5,-11.5 19.3,-23.29 -0.9,-11.12 -10.3,-19.52 -21.2,-19.52"
           style="fill:#a57d62;fill-opacity:1;fill-rule:nonzero;stroke:none"
           id="path248" /></g><path
         d="m 1186.19,796.07 c 0,0 21.77,5.64 26.63,4.1 4.87,-1.54 19.72,-11.74 21.51,-17.65 h -57.87 l 9.73,13.55"
         style="fill:#ffb27d;fill-opacity:1;fill-rule:nonzero;stroke:none;stroke-width:0.1"
         id="path250" /><path
         d="m 1001.86,946.91 c 0,0 33.74,-154.53 75.49,-164.74 l 107.56,0.41 c 0,0 7.51,11.36 0.68,19.38 0,0 -77.09,9.98 -79.56,12.63 -2.83,3.05 -42.51,131.71 -50.19,138.46 -7.67,6.76 -45.15,17.69 -53.98,-6.14"
         style="fill:#1e3d70;fill-opacity:1;fill-rule:nonzero;stroke:none;stroke-width:0.1"
         id="path252" /><path
         d="m 1307.25,432.51 h -74.1 c -0.7,0.14 -1.24,0.3 -1.57,0.46 -4.94,2.48 -3.4,21.42 -2.8,27.27 0.11,1.08 0.19,1.72 0.19,1.72 0,0 26.06,20.83 29.64,4.88 0.12,-0.5 0.25,-0.99 0.39,-1.47 v -0.01 c 4.52,-14.93 24.74,-21.71 36.42,-23.6 8.92,-1.45 11.23,-6.65 11.83,-9.25"
         style="fill:#2c3a64;fill-opacity:1;fill-rule:nonzero;stroke:none;stroke-width:0.1"
         id="path254" /><path
         d="m 1405.33,432.51 h -74.09 c -0.71,0.14 -1.25,0.3 -1.58,0.46 -4.94,2.48 -3.39,21.42 -2.8,27.27 0.12,1.08 0.2,1.72 0.2,1.72 0,0 26.05,20.83 29.64,4.88 0.11,-0.5 0.24,-0.99 0.38,-1.47 v -0.01 c 4.52,-14.93 24.74,-21.71 36.42,-23.6 8.92,-1.45 11.24,-6.65 11.83,-9.25"
         style="fill:#2c3a64;fill-opacity:1;fill-rule:nonzero;stroke:none;stroke-width:0.1"
         id="path256" /><path
         d="M 1105.59,827.7 V 651.03 H 926.577 V 827.7 c 0,31.22 25.301,56.52 56.513,56.52 h 66 c 31.21,0 56.5,-25.3 56.5,-56.52"
         style="fill:#d3aa89;fill-opacity:1;fill-rule:nonzero;stroke:none;stroke-width:0.1"
         id="path258" /><path
         d="M 1105.59,827.7 V 651.03 H 938.068 V 827.7 c 0,31.22 27.881,56.52 62.262,56.52 h 43 c 34.39,0 62.26,-25.3 62.26,-56.52"
         style="fill:#eac3a0;fill-opacity:1;fill-rule:nonzero;stroke:none;stroke-width:0.1"
         id="path260" /><path
         d="m 1226.53,652.76 c 0,-2.87 -1.1,-5.46 -2.86,-7.33 -1.76,-1.88 -4.19,-3.03 -6.88,-3.03 H 936.315 c -5.379,0 -9.736,4.63 -9.736,10.36 0,2.87 1.088,5.46 2.848,7.33 1.761,1.88 4.195,3.03 6.888,3.03 h 280.475 c 5.37,0 9.74,-4.63 9.74,-10.36"
         style="fill:#eac3a0;fill-opacity:1;fill-rule:nonzero;stroke:none;stroke-width:0.1"
         id="path262" /><path
         d="m 1088.04,652.76 c 0,-2.87 -1.09,-5.46 -2.85,-7.33 -1.76,-1.88 -4.2,-3.03 -6.89,-3.03 H 936.315 c -5.379,0 -9.736,4.63 -9.736,10.36 0,2.87 1.088,5.46 2.848,7.33 1.761,1.88 4.195,3.03 6.888,3.03 H 1078.3 c 5.38,0 9.74,-4.63 9.74,-10.36"
         style="fill:#d3aa89;fill-opacity:1;fill-rule:nonzero;stroke:none;stroke-width:0.1"
         id="path264" /><path
         d="m 960.25,642.4 -5.549,-38.12 -24.308,-166.81 c -0.39,-2.3 -2.264,-3.97 -4.463,-3.97 h -0.081 c -1.68,0 -3.002,1.53 -2.856,3.31 l 15.075,184.75 1.696,20.84 h 20.486"
         style="fill:#eac3a0;fill-opacity:1;fill-rule:nonzero;stroke:none;stroke-width:0.1"
         id="path266" /><path
         d="m 960.25,642.4 -5.549,-38.12 c -5.128,11.33 -12.341,15.65 -16.633,17.28 l 1.696,20.84 h 20.486"
         style="fill:#d3aa89;fill-opacity:1;fill-rule:nonzero;stroke:none;stroke-width:0.1"
         id="path268" /><path
         d="m 1063.7,642.4 5.55,-38.12 24.3,-166.81 c 0.39,-2.3 2.27,-3.97 4.47,-3.97 h 0.08 c 1.68,0 3,1.53 2.85,3.31 l -15.07,184.75 -1.7,20.84 h -20.48"
         style="fill:#eac3a0;fill-opacity:1;fill-rule:nonzero;stroke:none;stroke-width:0.1"
         id="path270" /><path
         d="m 1063.7,642.4 5.55,-38.12 c 5.12,11.33 12.34,15.65 16.63,17.28 l -1.7,20.84 h -20.48"
         style="fill:#d3aa89;fill-opacity:1;fill-rule:nonzero;stroke:none;stroke-width:0.1"
         id="path272" /><path
         d="m 1169.98,642.4 5.55,-38.12 24.31,-166.81 c 0.39,-2.3 2.26,-3.97 4.46,-3.97 h 0.08 c 1.68,0 3.01,1.53 2.86,3.31 l -15.07,184.75 -1.7,20.84 h -20.49"
         style="fill:#eac3a0;fill-opacity:1;fill-rule:nonzero;stroke:none;stroke-width:0.1"
         id="path274" /><path
         d="m 1169.98,642.4 5.55,-38.12 c 5.13,11.33 12.34,15.65 16.64,17.28 l -1.7,20.84 h -20.49"
         style="fill:#d3aa89;fill-opacity:1;fill-rule:nonzero;stroke:none;stroke-width:0.1"
         id="path276" /><path
         d="m 975.292,971.47 c 0,0 19.012,-27.85 47.638,-19.92 0,0 7.38,13.72 8.54,24.27 0.14,1.3 0.28,2.56 0.42,3.76 1.36,11.87 2.44,18.5 2.44,18.5 l -0.03,0.01 c -1.2,0.65 -40.327,21.57 -40.435,20.18 -2.571,-32.24 -18.573,-46.8 -18.573,-46.8"
         style="fill:#ffb27d;fill-opacity:1;fill-rule:nonzero;stroke:none;stroke-width:0.1"
         id="path278" /><path
         d="m 997.185,1010.18 c 3.195,-7.7 15.255,-23.36 34.705,-30.6 1.36,11.87 2.44,18.5 2.44,18.5 l -0.03,0.01 c -1.1,0.42 -38.068,14.36 -37.115,12.09"
         style="fill:#ed975d;fill-opacity:1;fill-rule:nonzero;stroke:none;stroke-width:0.1"
         id="path280" /><path
         d="m 1043.01,998.45 c 0,0 -47.024,-6.13 -50.388,23.22 -3.364,29.34 -11.699,48.31 18.178,53.46 29.89,5.15 37.01,-5.37 40.52,-14.89 3.5,-9.53 3.83,-59.44 -8.31,-61.79"
         style="fill:#ffb27d;fill-opacity:1;fill-rule:nonzero;stroke:none;stroke-width:0.1"
         id="path282" /><path
         d="m 1039.61,770.08 c 0,0 -18.45,-75.75 0,-106.96 l 191.22,8.75 c 0,0 23.08,-1.38 19.69,-29.47 -3.55,-29.35 33.39,-94.48 74.04,-184.62 0,0 20.83,-2.91 32.14,9.06 0,0 -47.11,231.92 -56.69,241.59 -35.39,35.68 -189.98,37.6 -189.98,37.6 l -70.42,24.05"
         style="fill:#233862;fill-opacity:1;fill-rule:nonzero;stroke:none;stroke-width:0.1"
         id="path284" /><path
         d="m 993.397,1013.69 c -0.667,-0.34 -10.858,-2.37 -25.78,36.81 -2.342,6.15 -3.055,19.02 4.93,29.51 7.986,10.49 33.163,16.81 53.723,18.59 20.56,1.77 24.25,-10.07 27.84,-21.96 3.77,-12.49 17.17,-23.81 17.17,-23.81 -18.38,-7.95 -37.92,8.08 -45.41,6.53 -7.49,-1.54 -11.22,-12.72 -12.14,-16.33 -0.92,-3.62 -2.06,-6.58 -10.86,-2.37 -8.794,4.2 -5.442,-12.52 -4.296,-15.77 0,0 0.401,-8.38 -5.177,-11.2"
         style="fill:#a9453d;fill-opacity:1;fill-rule:nonzero;stroke:none;stroke-width:0.1"
         id="path286" /><path
         d="m 991.972,770.08 c 0,0 -18.455,-75.75 0,-106.96 h 182.718 c 0,0 20.87,-1.4 17.48,-29.5 -3.55,-29.34 -5.27,-80.58 35.38,-170.72 0,0 22.9,-6.76 33.33,0.68 0,0 1.07,235.18 -8.51,244.85 -35.39,35.68 -189.98,37.6 -189.98,37.6 l -70.418,24.05"
         style="fill:#2b478b;fill-opacity:1;fill-rule:nonzero;stroke:none;stroke-width:0.1"
         id="path288" /><path
         d="m 1095.31,890.01 c 3.69,-14.84 7.28,-31.67 10.64,-48.84 0.2,-1.02 0.39,-2.04 0.59,-3.06 2.06,-10.64 4.06,-21.33 5.88,-31.78 0.72,-4.2 1.41,-8.35 2.07,-12.43 l 0.08,-0.55 c 0.37,-1.5 0.62,-3.16 0.85,-4.68 6.48,-39.25 10.64,-70.51 10.03,-71.17 -0.72,-0.82 -1.62,-1.38 -2.74,-1.54 -10.36,-1.43 -39.67,-11.72 -65.6,-12.96 -21.84,-1.17 -41.85,2.32 -63.695,8.41 -2.9,0.81 -9.658,3.2 -9.978,6.26 -0.406,3.34 -0.811,8.21 -1.308,14.35 -1.735,21.34 -4.697,58.04 -13.482,99.58 -1.619,7.74 -3.016,15.44 -4.198,23.06 -3.069,19.86 -4.611,39.09 -4.455,56.57 0.294,32.5 11.126,59.35 24.181,72.56 1.719,1.68 9.766,-2.72 21.485,-6.46 10.82,-3.44 16.84,-2.51 26.07,0.85 l 12.11,-5.63 c 1.9,-0.88 3.69,-1.97 5.35,-3.25 12.16,-9.4 26.17,-21.19 34.46,-41.17 0.66,-1.58 1.31,-3.27 1.96,-5.07 3.23,-8.81 6.49,-20.19 9.7,-33.05"
         style="fill:#2a4e96;fill-opacity:1;fill-rule:nonzero;stroke:none;stroke-width:0.1"
         id="path290" /><path
         d="m 1053.63,756.36 -0.21,0.01 c -3.28,0.3 -5.86,1.64 -7.66,3.98 -3.67,4.76 -2.53,11.94 -2.48,12.24 0.2,1.21 1.35,2.03 2.56,1.83 1.2,-0.2 2.02,-1.34 1.82,-2.55 -0.01,-0.08 -0.86,-5.61 1.63,-8.82 1.03,-1.33 2.51,-2.07 4.54,-2.26 1.22,-0.11 2.12,-1.19 2,-2.41 -0.1,-1.15 -1.07,-2.02 -2.2,-2.02"
         style="fill:#a57d62;fill-opacity:1;fill-rule:nonzero;stroke:none;stroke-width:0.1"
         id="path292" /><path
         d="m 1118.9,766.97 c -19.21,-9.09 -54.64,-21.98 -84.57,-11.35 -43.537,15.45 -54.62,155.8 -54.62,155.8 0,0 16.892,4.24 48.98,0 20.91,-2.76 58.86,-60.07 82.77,-99.68 l 7.44,-44.77"
         style="fill:#1e3d70;fill-opacity:1;fill-rule:nonzero;stroke:none;stroke-width:0.1"
         id="path294" /><path
         d="m 1476.46,432.68 c -2.19,0 -4.06,1.44 -4.43,3.41 l -21.72,115.54 -31.24,166.18 -8.73,46.47 22.25,0.59 3.86,-26.97 27.1,-189.57 16.07,-112.36 c 0.25,-1.75 -1.23,-3.29 -3.16,-3.29"
         style="fill:#efcbab;fill-opacity:1;fill-rule:nonzero;stroke:none;stroke-width:0.1"
         id="path296" /><path
         d="m 1436.45,737.9 c -14.42,-5.97 -17.38,-20.09 -17.38,-20.09 l -8.73,46.47 22.25,0.59 3.86,-26.97"
         style="fill:#c69d7f;fill-opacity:1;fill-rule:nonzero;stroke:none;stroke-width:0.1"
         id="path298" /><path
         d="m 1074.6,432.68 c 1.93,0 3.58,1.44 3.91,3.41 l 19.19,115.54 27.6,166.18 7.72,46.47 -19.66,0.59 -3.41,-26.97 L 1086,548.33 1071.8,435.97 c -0.22,-1.75 1.1,-3.29 2.8,-3.29"
         style="fill:#efcbab;fill-opacity:1;fill-rule:nonzero;stroke:none;stroke-width:0.1"
         id="path300" /><path
         d="m 1109.95,737.9 c 12.74,-5.97 15.35,-20.09 15.35,-20.09 l 7.72,46.47 -19.66,0.59 -3.41,-26.97"
         style="fill:#c69d7f;fill-opacity:1;fill-rule:nonzero;stroke:none;stroke-width:0.1"
         id="path302" /><path
         d="m 1388.59,435.97 -16.07,112.36 -27.1,189.57 -3.86,26.97 -22.25,-0.59 8.73,-46.47 31.24,-166.18 21.72,-115.54 c 0.37,-1.97 2.24,-3.41 4.43,-3.41 1.93,0 3.41,1.54 3.16,3.29"
         style="fill:#c69d7f;fill-opacity:1;fill-rule:nonzero;stroke:none;stroke-width:0.1"
         id="path304" /><path
         d="m 1040.03,737.9 -23.95,-189.57 -14.2,-112.36 c -0.22,-1.75 1.09,-3.29 2.8,-3.29 1.93,0 3.58,1.44 3.91,3.41 l 19.19,115.54 27.6,166.18 7.72,46.47 -19.66,0.59 -3.41,-26.97"
         style="fill:#c69d7f;fill-opacity:1;fill-rule:nonzero;stroke:none;stroke-width:0.1"
         id="path306" /><path
         d="m 1494.84,770.08 v -11.6 c 0,-6.85 -5.27,-12.45 -11.72,-12.45 h -480.11 c -6.448,0 -11.721,5.6 -11.721,12.45 v 11.6 c 0,6.84 5.273,12.44 11.721,12.44 h 480.11 c 6.45,0 11.72,-5.6 11.72,-12.44"
         style="fill:#c69d7f;fill-opacity:1;fill-rule:nonzero;stroke:none;stroke-width:0.1"
         id="path308" /><path
         d="m 1494.84,770.08 v -11.6 c 0,-6.85 -5.27,-12.45 -11.72,-12.45 h -355.94 c -6.45,0 -11.72,5.6 -11.72,12.45 v 11.6 c 0,6.84 5.27,12.44 11.72,12.44 h 355.94 c 6.45,0 11.72,-5.6 11.72,-12.44"
         style="fill:#efcbab;fill-opacity:1;fill-rule:nonzero;stroke:none;stroke-width:0.1"
         id="path310" /><path
         d="m 1231.92,838.23 -3.33,30.06 -91.65,-72.99 20.91,-13.13 74.07,56.06"
         style="fill:#a83535;fill-opacity:1;fill-rule:nonzero;stroke:none;stroke-width:0.1"
         id="path312" /><path
         d="m 1198.85,862.97 33.07,-24.74 -74.07,-56.06 -33.78,21.22 74.78,59.58"
         style="fill:#bc3f3f;fill-opacity:1;fill-rule:nonzero;stroke:none;stroke-width:0.1"
         id="path314" /><path
         d="m 1224.92,868.29 2.26,-26.5 -18.65,13.94 z"
         style="fill:#c5d6e2;fill-opacity:1;fill-rule:nonzero;stroke:none;stroke-width:0.1"
         id="path316" /><path
         d="m 1224.92,868.29 2.65,-2.05 3.2,-27.15 -3.59,2.7 -2.26,26.5"
         style="fill:#d5e4ef;fill-opacity:1;fill-rule:nonzero;stroke:none;stroke-width:0.1"
         id="path318" /><path
         d="m 1200.27,861.91 1.61,1.51 25.3,-18.44 1.16,-4.01 -28.07,20.94"
         style="fill:#d5e4ef;fill-opacity:1;fill-rule:nonzero;stroke:none;stroke-width:0.1"
         id="path320" /><path
         d="m 1155.77,830.36 c 3.63,3.32 11.88,10.66 12.53,9.34 0.46,-0.95 0.2,-2.7 -0.67,-4.59 5.21,2.74 10.6,4.79 24.05,3.93 2.7,-0.17 5.27,-1.36 7.01,-3.43 1.6,-1.92 2.43,-4.46 -0.66,-6.97 -6.17,-5.02 -4.54,-2.27 -13.09,-9.53 -8.54,-7.25 -19.75,-10.25 -27.11,-6.85 l -9.33,0.36 -3.05,14.9 c 0,0 5.13,1.28 10.32,2.84"
         style="fill:#ffb27d;fill-opacity:1;fill-rule:nonzero;stroke:none;stroke-width:0.1"
         id="path322" /><path
         d="m 971.889,943.86 c 0,0 31.711,-151.89 73.641,-161.34 17.6,-3.97 106.43,26.95 106.43,26.95 0,0 9.56,18.78 -3.42,25.61 0,0 -84.08,-4.44 -87.07,-2.39 -3.43,2.35 -16.45,108.31 -25.42,113.23 -8.97,4.91 -60.751,23.12 -64.161,-2.06"
         style="fill:#2a4e96;fill-opacity:1;fill-rule:nonzero;stroke:none;stroke-width:0.1"
         id="path324" /><path
         d="m 537.087,464.05 -14.971,7.52 -1.016,20.92 c 0,0 -0.88,9.63 -1.369,23.43 -0.933,26.73 5.18,125.3 16.492,143.54 9.652,15.55 58.541,7.14 52.097,-15.38 L 563.885,558.32 C 549.881,509.1 537.087,464.05 537.087,464.05"
         style="fill:#ef9e67;fill-opacity:1;fill-rule:nonzero;stroke:none;stroke-width:0.1"
         id="path326" /><path
         d="m 581.524,432.99 h -76.271 c 0,0 -1.828,11.62 2.156,20.44 3.818,8.46 14.986,14.66 14.266,27.23 5.396,-7.55 6.948,-10.25 17.23,-10.21 1.351,-2.19 9.362,-17.48 13.874,-20.72 4.985,-3.59 27.21,-2.31 28.745,-16.74"
         style="fill:#233862;fill-opacity:1;fill-rule:nonzero;stroke:none;stroke-width:0.1"
         id="path328" /><path
         d="m 475.595,816.66 74.213,-22.68 v -11.46 l -84.83,0.1 10.617,34.04"
         style="fill:#ed985f;fill-opacity:1;fill-rule:nonzero;stroke:none;stroke-width:0.1"
         id="path330" /><path
         d="M 463.864,651.03 H 284.848 v 176.68 c 0,31.21 25.299,56.5 56.507,56.5 h 66.003 c 31.207,0 56.506,-25.29 56.506,-56.5 V 651.03"
         style="fill:#eac3a0;fill-opacity:1;fill-rule:nonzero;stroke:none;stroke-width:0.1"
         id="path332" /><path
         d="m 584.795,652.76 c 0,-2.87 -1.095,-5.46 -2.856,-7.33 -1.76,-1.88 -4.194,-3.03 -6.88,-3.03 H 294.584 c -5.379,0 -9.736,4.63 -9.736,10.36 0,2.87 1.088,5.46 2.848,7.33 1.761,1.88 4.195,3.03 6.888,3.03 h 280.475 c 5.371,0 9.736,-4.63 9.736,-10.36"
         style="fill:#eac3a0;fill-opacity:1;fill-rule:nonzero;stroke:none;stroke-width:0.1"
         id="path334" /><path
         d="m 446.306,652.76 c 0,-2.87 -1.087,-5.46 -2.848,-7.33 -1.76,-1.88 -4.194,-3.03 -6.888,-3.03 H 294.584 c -5.379,0 -9.736,4.63 -9.736,10.36 0,2.87 1.088,5.46 2.848,7.33 1.761,1.88 4.195,3.03 6.888,3.03 H 436.57 c 5.379,0 9.736,-4.63 9.736,-10.36"
         style="fill:#d3aa89;fill-opacity:1;fill-rule:nonzero;stroke:none;stroke-width:0.1"
         id="path336" /><path
         d="M 318.519,642.4 312.97,604.28 288.662,437.47 c -0.39,-2.3 -2.264,-3.97 -4.463,-3.97 h -0.081 c -1.68,0 -3.002,1.53 -2.856,3.31 l 15.075,184.75 1.696,20.84 h 20.486"
         style="fill:#eac3a0;fill-opacity:1;fill-rule:nonzero;stroke:none;stroke-width:0.1"
         id="path338" /><path
         d="m 318.519,642.4 -5.549,-38.12 c -5.128,11.33 -12.341,15.65 -16.633,17.28 l 1.696,20.84 h 20.486"
         style="fill:#d3aa89;fill-opacity:1;fill-rule:nonzero;stroke:none;stroke-width:0.1"
         id="path340" /><path
         d="m 421.966,642.4 5.55,-38.12 24.307,-166.81 c 0.39,-2.3 2.264,-3.97 4.463,-3.97 h 0.081 c 1.679,0 3.002,1.53 2.856,3.31 l -15.075,184.75 -1.696,20.84 h -20.486"
         style="fill:#eac3a0;fill-opacity:1;fill-rule:nonzero;stroke:none;stroke-width:0.1"
         id="path342" /><path
         d="m 421.966,642.4 5.55,-38.12 c 5.127,11.33 12.34,15.65 16.632,17.28 l -1.696,20.84 h -20.486"
         style="fill:#d3aa89;fill-opacity:1;fill-rule:nonzero;stroke:none;stroke-width:0.1"
         id="path344" /><path
         d="m 528.252,642.4 5.55,-38.12 24.308,-166.81 c 0.39,-2.3 2.264,-3.97 4.462,-3.97 h 0.081 c 1.68,0 3.002,1.53 2.856,3.31 l -15.074,184.75 -1.696,20.84 h -20.487"
         style="fill:#eac3a0;fill-opacity:1;fill-rule:nonzero;stroke:none;stroke-width:0.1"
         id="path346" /><path
         d="m 528.252,642.4 5.55,-38.12 c 5.128,11.33 12.341,15.65 16.633,17.28 l -1.696,20.84 h -20.487"
         style="fill:#d3aa89;fill-opacity:1;fill-rule:nonzero;stroke:none;stroke-width:0.1"
         id="path348" /><path
         d="m 405.674,1059.88 c 0,0 -22.437,9.92 -38.314,-13.63 -15.878,-23.54 -7.269,-70.18 -28.097,-85.6 -40.205,-29.79 -27.219,-87.81 14.268,-114.03 41.486,-26.22 54.291,110.53 54.291,110.53 l -2.148,102.73"
         style="fill:#233862;fill-opacity:1;fill-rule:nonzero;stroke:none;stroke-width:0.1"
         id="path350" /><path
         d="m 462.67,745.22 c -22.476,71.84 2.866,114.45 0.43,150.4 -0.712,10.49 -5.441,19.89 -10.945,27.48 h 0.006 l -0.029,0.03 c -8.611,11.85 -19.107,19.24 -19.107,19.24 0,0 -2.186,0.43 -4.589,0.65 -1.868,0.99 -2.313,9.38 -2.291,17.63 0.022,9.89 0.782,20.4 0.782,20.4 l -33.382,6.61 -1.985,0.39 c 0.092,-25.67 -7.385,-41.6 -11.796,-42.77 0,0 -29.345,-4.06 -31.581,-7.45 -1.549,-2.34 8.949,-24.08 19.177,-37.08 -4.827,-43 -5.807,-102.38 -5.939,-107.91 -0.258,-10.93 -7.673,-20.76 -23.171,-55.52 -8.562,-19.21 147.366,-65.48 124.42,7.9"
         style="fill:#ffb27d;fill-opacity:1;fill-rule:nonzero;stroke:none;stroke-width:0.1"
         id="path352" /><path
         d="m 426.927,981.05 c 0,0 -0.76,-10.51 -0.782,-20.4 -18.68,0.52 -28.554,17.56 -32.6,27.01 l 33.382,-6.61"
         style="fill:#ef9e67;fill-opacity:1;fill-rule:nonzero;stroke:none;stroke-width:0.1"
         id="path354" /><path
         d="m 390.098,991.29 c 0,0 -9.789,15.47 -12.139,28.7 -1.678,9.44 3.132,44.44 38.304,39.4 0,0 10.215,-1.01 19.817,-7.49 7.636,-5.16 18.657,-16.3 6.335,-46.84 l -3.201,-10.32 -49.116,-3.45"
         style="fill:#233862;fill-opacity:1;fill-rule:nonzero;stroke:none;stroke-width:0.1"
         id="path356" /><path
         d="m 433.165,971.68 c 0,0 -44.196,-0.73 -44.227,26.8 -0.03,27.53 -5.754,45.98 22.462,47.6 28.217,1.63 33.711,-8.86 35.956,-18.05 2.246,-9.19 -2.695,-55.45 -14.191,-56.35"
         style="fill:#ffb27d;fill-opacity:1;fill-rule:nonzero;stroke:none;stroke-width:0.1"
         id="path358" /><path
         d="m 431.529,1046.76 c 0,0 -12.1,-32.3 -30.671,-37.07 -18.571,-4.78 -26.627,0.2 -26.627,0.2 0,0 14.245,11.31 17.201,31.07 0,0 30.969,21.17 40.097,5.8"
         style="fill:#233862;fill-opacity:1;fill-rule:nonzero;stroke:none;stroke-width:0.1"
         id="path360" /><path
         d="m 428.53,1044.14 c 0,0 9.037,-7.21 11.241,-14.22 2.203,-7.01 3.194,-21.45 7.4,-20.96 0,0 9.117,21.96 -1.129,34.38 -10.864,13.16 -17.512,0.8 -17.512,0.8"
         style="fill:#233862;fill-opacity:1;fill-rule:nonzero;stroke:none;stroke-width:0.1"
         id="path362" /><path
         d="m 485.695,813.57 c 0,0 -7.652,-20.19 -15.98,-22.35 -2.499,6.67 -8.297,23.41 -14.187,40.57 -2.356,9.97 -4.773,20.98 -7.119,32.06 -8.185,38.75 -15.386,78.52 -15.386,78.52 0,0 18.958,-1.07 22.874,-5.19 13.298,-14 9.434,-57.64 14.668,-90.8 2.224,-14.03 4.078,-24.28 5.03,-25.29 3.197,-3.43 10.1,-7.52 10.1,-7.52"
         style="fill:#bc3f3f;fill-opacity:1;fill-rule:nonzero;stroke:none;stroke-width:0.1"
         id="path364" /><path
         d="m 430.209,1043.04 c 0,0 -8.621,-33.82 -32.054,-44.65 0,0 23.433,20.78 25.422,43.11 1.99,22.33 6.632,1.54 6.632,1.54"
         style="fill:#233862;fill-opacity:1;fill-rule:nonzero;stroke:none;stroke-width:0.1"
         id="path366" /><path
         d="m 355.324,775.67 c 0,0 -46.26,-76.68 -23.942,-101.97 22.318,-25.29 193.651,-17.1 213.122,-29.53 19.472,-12.42 -11.391,-27.22 71.97,-181.4 h 17.349 c 0,0 -22.759,170.12 -27.893,212.58 -4.204,34.77 -250.606,100.32 -250.606,100.32"
         style="fill:#ffb27d;fill-opacity:1;fill-rule:nonzero;stroke:none;stroke-width:0.1"
         id="path368" /><path
         d="m 334.849,732.82 c 0,0 -18.079,-20.05 -9.552,-69.7 0,0 214.258,-14.38 219.207,-18.95 4.949,-4.57 9.767,-69.33 9.767,-69.33 0,0 44.201,3.81 66.753,29.51 l -16.257,80.83 c 0,0 -111.685,65.28 -142.097,60.04 -30.412,-5.25 -123.408,-13.07 -123.408,-13.07 l -4.413,0.67"
         style="fill:#2b478b;fill-opacity:1;fill-rule:nonzero;stroke:none;stroke-width:0.1"
         id="path370" /><path
         d="m 347.675,858.99 c 13.213,-73.57 -32.297,-129.36 -17.44,-138.27 14.857,-8.9 141.877,13.03 143.926,19.17 2.049,6.14 -22.486,108.81 -22.486,108.81 0,0 -108.282,34.14 -104,10.29"
         style="fill:#a83535;fill-opacity:1;fill-rule:nonzero;stroke:none;stroke-width:0.1"
         id="path372" /><path
         d="m 485.695,813.57 c 0,0 -7.652,-20.19 -15.98,-22.35 -2.499,6.67 -8.297,23.41 -14.187,40.57 -2.356,9.97 -4.773,20.98 -7.119,32.06 5.531,-7.73 13.214,-15.72 22.156,-17.47 2.224,-14.03 4.078,-24.28 5.03,-25.29 3.197,-3.43 10.1,-7.52 10.1,-7.52"
         style="fill:#a53d38;fill-opacity:1;fill-rule:nonzero;stroke:none;stroke-width:0.1"
         id="path374" /><path
         d="m 849.654,432.68 c -2.186,0 -4.056,1.44 -4.43,3.41 l -21.717,115.54 -31.238,166.18 -8.735,46.47 22.249,0.59 3.861,-26.97 27.105,-189.57 16.068,-112.36 c 0.248,-1.75 -1.235,-3.29 -3.163,-3.29"
         style="fill:#efcbab;fill-opacity:1;fill-rule:nonzero;stroke:none;stroke-width:0.1"
         id="path376" /><path
         d="m 809.644,737.9 c -14.415,-5.97 -17.375,-20.09 -17.375,-20.09 l -8.735,46.47 22.249,0.59 3.861,-26.97"
         style="fill:#c69d7f;fill-opacity:1;fill-rule:nonzero;stroke:none;stroke-width:0.1"
         id="path378" /><path
         d="m 447.794,432.68 c 1.932,0 3.584,1.44 3.915,3.41 l 19.188,115.54 27.601,166.18 7.718,46.47 -19.659,0.59 -3.411,-26.97 -23.949,-189.57 -14.198,-112.36 c -0.218,-1.75 1.092,-3.29 2.795,-3.29"
         style="fill:#efcbab;fill-opacity:1;fill-rule:nonzero;stroke:none;stroke-width:0.1"
         id="path380" /><path
         d="m 483.146,737.9 c 12.736,-5.97 15.352,-20.09 15.352,-20.09 l 7.718,46.47 -19.659,0.59 -3.411,-26.97"
         style="fill:#c69d7f;fill-opacity:1;fill-rule:nonzero;stroke:none;stroke-width:0.1"
         id="path382" /><path
         d="m 761.788,435.97 -16.069,112.36 -27.105,189.57 -3.861,26.97 -22.249,-0.59 8.735,-46.47 31.238,-166.18 21.717,-115.54 c 0.374,-1.97 2.244,-3.41 4.431,-3.41 1.927,0 3.41,1.54 3.163,3.29"
         style="fill:#c69d7f;fill-opacity:1;fill-rule:nonzero;stroke:none;stroke-width:0.1"
         id="path384" /><path
         d="M 413.225,737.9 389.276,548.33 375.078,435.97 c -0.219,-1.75 1.092,-3.29 2.795,-3.29 1.932,0 3.584,1.44 3.915,3.41 l 19.188,115.54 27.601,166.18 7.717,46.47 -19.658,0.59 -3.411,-26.97"
         style="fill:#c69d7f;fill-opacity:1;fill-rule:nonzero;stroke:none;stroke-width:0.1"
         id="path386" /><path
         d="m 868.035,770.08 v -11.6 c 0,-6.85 -5.272,-12.45 -11.72,-12.45 h -480.11 c -6.447,0 -11.72,5.6 -11.72,12.45 v 11.6 c 0,6.84 5.273,12.44 11.72,12.44 h 480.11 c 6.448,0 11.72,-5.6 11.72,-12.44"
         style="fill:#c69d7f;fill-opacity:1;fill-rule:nonzero;stroke:none;stroke-width:0.1"
         id="path388" /><path
         d="m 868.035,770.08 v -11.6 c 0,-6.85 -5.272,-12.45 -11.72,-12.45 H 500.373 c -6.447,0 -11.72,5.6 -11.72,12.45 v 11.6 c 0,6.84 5.273,12.44 11.72,12.44 h 355.942 c 6.448,0 11.72,-5.6 11.72,-12.44"
         style="fill:#efcbab;fill-opacity:1;fill-rule:nonzero;stroke:none;stroke-width:0.1"
         id="path390" /><path
         d="m 357.248,938.46 c 0,0 -20.117,7.41 -17.985,-27.42 1.976,-32.25 25.337,-125.78 49.179,-127.15 23.843,-1.37 111.931,-1.37 111.931,-1.37 l -2.491,11.01 c 0,0 -95.11,24.75 -96.439,27.59 -1.329,2.84 -44.195,117.34 -44.195,117.34"
         style="fill:#ffb27d;fill-opacity:1;fill-rule:nonzero;stroke:none;stroke-width:0.1"
         id="path392" /><path
         d="m 675.161,432.99 h -76.27 c 0,0 -1.828,11.62 2.155,20.44 3.818,8.46 9.796,12.31 8.365,22.55 4.846,-4.99 12.745,-10.58 23.772,-9.1 1.351,-2.19 8.721,-13.91 13.234,-17.15 4.984,-3.59 27.209,-2.31 28.744,-16.74"
         style="fill:#29436d;fill-opacity:1;fill-rule:nonzero;stroke:none;stroke-width:0.1"
         id="path394" /><path
         d="m 546.292,793.53 c 0,0 20.148,6.36 24.205,4.74 4.057,-1.63 17.58,-15.69 17.58,-15.69 h -39.293 l -2.492,10.95"
         style="fill:#ed985f;fill-opacity:1;fill-rule:nonzero;stroke:none;stroke-width:0.1"
         id="path396" /><path
         d="m 521.48,782.52 c -0.441,0 -0.867,0.24 -1.083,0.66 l -22.38,43.42 c -0.308,0.6 -0.073,1.33 0.525,1.64 0.598,0.31 1.331,0.07 1.639,-0.52 l 22.38,-43.43 c 0.308,-0.59 0.073,-1.33 -0.525,-1.64 -0.178,-0.09 -0.369,-0.13 -0.556,-0.13"
         style="fill:#2b478b;fill-opacity:1;fill-rule:nonzero;stroke:none;stroke-width:0.1"
         id="path398" /><path
         d="m 497.882,793.53 c 0,0 20.148,6.36 24.205,4.74 4.057,-1.63 17.579,-15.69 17.579,-15.69 h -39.293 l -2.491,10.95"
         style="fill:#ffb27d;fill-opacity:1;fill-rule:nonzero;stroke:none;stroke-width:0.1"
         id="path400" /><path
         d="M 768.872,782.58 H 665.425 v 5.68 h 103.447 v -5.68"
         style="fill:#2b478b;fill-opacity:1;fill-rule:nonzero;stroke:none;stroke-width:0.1"
         id="path402" /><path
         d="M 727.16,782.58 H 623.713 v 5.68 H 727.16 v -5.68"
         style="fill:#c0d2dd;fill-opacity:1;fill-rule:nonzero;stroke:none;stroke-width:0.1"
         id="path404" /><path
         d="M 756.161,788.26 H 652.714 v 5.68 h 103.447 v -5.68"
         style="fill:#ee9849;fill-opacity:1;fill-rule:nonzero;stroke:none;stroke-width:0.1"
         id="path406" /><path
         d="M 714.448,788.26 H 611.002 v 5.68 h 103.446 v -5.68"
         style="fill:#d8e5ef;fill-opacity:1;fill-rule:nonzero;stroke:none;stroke-width:0.1"
         id="path408" /><path
         d="m 426.821,756.36 -0.208,0.01 c -3.279,0.3 -5.855,1.64 -7.656,3.98 -3.671,4.76 -2.531,11.94 -2.481,12.24 0.201,1.21 1.348,2.03 2.555,1.83 1.209,-0.2 2.027,-1.34 1.829,-2.55 -0.013,-0.08 -0.861,-5.61 1.624,-8.82 1.032,-1.33 2.516,-2.07 4.54,-2.26 1.222,-0.11 2.121,-1.19 2.007,-2.41 -0.107,-1.15 -1.075,-2.02 -2.21,-2.02"
         style="fill:#a57d62;fill-opacity:1;fill-rule:nonzero;stroke:none;stroke-width:0.1"
         id="path410" /><path
         d="m 399.706,571.55 c 0,0 3.597,11.43 10.515,14.76 l 37.025,-3.92 c 0,0 -8.309,-9.29 -8.704,-14.95 l -38.836,4.11"
         style="fill:#d2e4ff;fill-opacity:1;fill-rule:nonzero;stroke:none;stroke-width:0.1"
         id="path412" /><path
         d="m 450.544,512.86 -63.282,6.7 c -2.973,0.32 -5.129,2.98 -4.814,5.95 l 4.442,41.96 c 0.314,2.97 2.98,5.13 5.954,4.81 l 63.282,-6.7 c 2.974,-0.31 5.129,-2.98 4.814,-5.95 l -4.441,-41.95 c -0.315,-2.98 -2.981,-5.13 -5.955,-4.82"
         style="fill:#912f2f;fill-opacity:1;fill-rule:nonzero;stroke:none;stroke-width:0.1"
         id="path414" /><path
         d="m 423.978,557.89 -29.827,-2.15 -2.759,38.24 29.827,2.15 2.759,-38.24"
         style="fill:#e58638;fill-opacity:1;fill-rule:nonzero;stroke:none;stroke-width:0.1"
         id="path416" /><path
         d="m 422.27,557.77 -29.827,-2.15 -2.76,38.23 29.827,2.16 2.76,-38.24"
         style="fill:#ee9849;fill-opacity:1;fill-rule:nonzero;stroke:none;stroke-width:0.1"
         id="path418" /><path
         d="m 418.725,542.42 -25.137,16.2 20.768,32.22 25.137,-16.2 -20.768,-32.22"
         style="fill:#578e9b;fill-opacity:1;fill-rule:nonzero;stroke:none;stroke-width:0.1"
         id="path420" /><path
         d="m 415.916,544.23 -25.137,16.2 20.767,32.23 25.137,-16.2 -20.767,-32.23"
         style="fill:#74acbe;fill-opacity:1;fill-rule:nonzero;stroke:none;stroke-width:0.1"
         id="path422" /><path
         d="m 435.084,514.5 -60.591,6.41 c -3.717,0.4 -6.41,3.73 -6.017,7.44 l 4.156,39.27 c 0.394,3.71 3.726,6.41 7.443,6.01 l 60.591,-6.41 c 3.717,-0.39 6.411,-3.73 6.017,-7.44 l -4.157,-39.27 c -0.393,-3.71 -3.725,-6.41 -7.442,-6.01"
         style="fill:#bc3f3f;fill-opacity:1;fill-rule:nonzero;stroke:none;stroke-width:0.1"
         id="path424" /><path
         d="m 449.192,564.82 c -0.046,0.5 -3.171,50.85 -9.584,100.29 -3.764,29.02 -7.377,52.35 -10.738,69.36 -5.615,28.41 -9.159,31.97 -10.005,32.42 -0.82,-0.37 -4.421,-3.6 -10.734,-30.89 -3.78,-16.33 -7.966,-38.8 -12.442,-66.76 -7.627,-47.66 -13.522,-95.38 -13.581,-95.86 l -5.517,-1.22 c 0.06,0.49 7.488,50.6 15.198,98.63 15.823,98.59 23.342,99.7 26.553,100.18 0.747,0.11 1.898,0.04 3.134,-0.93 2.413,-1.89 9.757,-7.65 22.515,-106.87 6.257,-48.67 12.09,-97.11 12.135,-97.59 l -6.934,-0.76"
         style="fill:#bc3f3f;fill-opacity:1;fill-rule:nonzero;stroke:none;stroke-width:0.1"
         id="path426" /><path
         d="m 433.025,942.37 c 0,0 -47.348,-44.66 -93.762,-31.33 0,0 2.744,-89.1 46.882,-129.91 h 72.139 c 0,0 11.527,8.91 10.885,19.99 l -36.144,141.25"
         style="fill:#bc3f3f;fill-opacity:1;fill-rule:nonzero;stroke:none;stroke-width:0.1"
         id="path428" /><path
         d="m 385.554,868.76 c 0,0 11.633,-42.82 15.889,-47.64 4.257,-4.82 36.347,-12.01 36.347,-12.01 0,0 -8.749,36.22 -52.236,59.65"
         style="fill:#a83535;fill-opacity:1;fill-rule:nonzero;stroke:none;stroke-width:0.1"
         id="path430" /><path
         d="m 528.252,642.4 c 0,0 -12.946,-41.21 -11.58,-63.07 0,0 11.806,-4.16 21.268,-3.45 l -9.688,66.52"
         style="fill:#2b478b;fill-opacity:1;fill-rule:nonzero;stroke:none;stroke-width:0.1"
         id="path432" /><g
         id="g434"
         transform="scale(0.165435)"><path
           d="m 16004.4,6022.12 c -15.3,-48.47 -28.2,-95.68 -38,-141.08 h -4397.7 v 3250.34 h 3009.2 c 28.3,-15.33 56.5,-30.66 84.1,-46.6 77.2,-44.16 152.6,-90.16 225.7,-138.61 252,-167.42 477.1,-360.6 664.1,-577.7 1.3,-1.22 2.5,-2.45 3.1,-3.68 519.4,-604.06 745.1,-1395.79 449.5,-2342.67"
           style="fill:#d5e4ef;fill-opacity:1;fill-rule:nonzero;stroke:none"
           id="path436" /></g><g
         id="g438"
         transform="scale(0.127407)"><path
           d="m 15961.5,10625.8 c -117.9,-114.9 -419.5,-457.2 -367.4,-909.01 0,0 -4.3,-326.97 271,-283.94 275.3,43.02 404.4,133.36 391.5,253.83 -12.9,120.46 -12.9,417.32 -55.9,503.32 -37.7,75.3 99.3,430.6 -90.7,477.9 -53.2,13.2 -109.4,-3.8 -148.5,-42.1"
           style="fill:#5c96e3;fill-opacity:1;fill-rule:nonzero;stroke:none"
           id="path440" /></g><g
         id="g442"
         transform="scale(0.133362)"><path
           d="m 16250.2,9282.9 c 0,0 4.1,-312.39 -258.9,-271.27 -18,2.84 -35.4,5.85 -52.1,9.06 -227.3,44.02 -333.5,126.26 -322,233.41 9.1,83.85 11.5,257.02 28,376.69 v 0 c 6.2,44.64 14.3,81.87 25.5,104.19 36,71.96 -94.9,411.32 86.6,456.52 50.8,12.6 104.5,-3.7 141.9,-40.2 112.6,-109.7 400.8,-436.73 351,-868.4"
           style="fill:#5c96e3;fill-opacity:1;fill-rule:nonzero;stroke:none"
           id="path444" /></g><g
         id="g446"
         transform="scale(0.129134)"><path
           d="m 16300,10141.1 -164.2,246 v 406 c 0,23.5 -16.8,44.5 -40.1,47.6 -28.2,3.8 -52.5,-18.3 -52.5,-45.8 v -404.6 l -153.2,-249.2 123.2,-217.47 59.7,225.87 c 7.6,20.4 36.5,20.4 44.2,0 l 35.6,-242.01 147.3,233.61"
           style="fill:#5c96e3;fill-opacity:1;fill-rule:nonzero;stroke:none"
           id="path448" /></g><g
         id="g450"
         transform="scale(0.13041)"><path
           d="m 16300,9226.83 c -232.4,45.01 -341,129.11 -329.3,238.68 9.3,85.76 1.2,262.85 18.1,385.23 0,0 16.2,-117.41 134.1,-296.96 96.1,-146.41 87.5,-268.45 177.1,-326.95"
           style="fill:#4584c9;fill-opacity:1;fill-rule:nonzero;stroke:none"
           id="path452" /></g><g
         id="g454"
         transform="scale(0.127186)"><path
           d="m 15950.4,9460.67 c 238.3,46.15 349.6,132.39 337.6,244.73 -9.5,87.93 -12,269.51 -29.4,395 v 0 c 0,0 7,-123.48 -126.6,-304.49 -106.7,-144.48 -89.8,-275.26 -181.6,-335.24"
           style="fill:#4584c9;fill-opacity:1;fill-rule:nonzero;stroke:none"
           id="path456" /></g><g
         id="g458"
         transform="scale(0.14361)"><path
           d="m 15155,9625.71 h -57.3 v 5.72 h 57.3 z m 114.5,0 h -57.3 v 5.72 h 57.3 z m 114.5,0 h -57.3 v 5.72 h 57.3 z m 114.5,0 h -57.3 v 5.72 h 57.3 z m 114.5,0 h -57.2 v 5.72 h 57.2 z m 114.5,0 h -57.3 v 5.72 h 57.3 z m 114.5,0 h -57.3 v 5.72 h 57.3 z m 114.5,0 h -57.2 v 5.72 h 57.2 z m 114.5,0 h -57.3 v 5.72 h 57.3 z m 114.5,0 h -57.3 v 5.72 h 57.3 z m 114.5,0 h -57.2 v 5.72 h 57.2 z m -1282.5,-77.12 -4,4.05 40.5,40.47 4,-4.04 z m -80.9,-80.97 -4.1,4.05 40.5,40.48 4,-4.05 z m -81,-80.97 -4,4.05 40.4,40.49 4.1,-4.05 z m -81,-80.96 -4,4.04 40.4,40.49 4.2,-4.05 -40.6,-40.48"
           style="fill:#4080c6;fill-opacity:1;fill-rule:nonzero;stroke:none"
           id="path460" /></g><g
         id="g462"
         transform="scale(0.144701)"><path
           d="m 15163.7,9157.24 h -56.9 v 5.68 h 56.9 z m 113.6,0 h -56.8 v 5.68 h 56.8 z m 113.6,0 h -56.8 v 5.68 h 56.8 z m 113.7,0 h -56.9 v 5.68 h 56.9 z m 113.6,0 h -56.8 v 5.68 h 56.8 z m 113.6,0 h -56.8 v 5.68 h 56.8 z m 113.7,0 h -56.8 v 5.68 h 56.8 z m 113.6,0 h -56.8 v 5.68 h 56.8 z m 113.7,0 h -56.9 v 5.68 h 56.9 z m 113.6,0 h -56.8 v 5.68 h 56.8 z m 113.6,0 h -56.8 v 5.68 h 56.8 z m -1272.8,-76.53 -4,4.01 40.2,40.18 4,-4.02 z m -80.3,-80.36 -4,4.01 40.1,40.18 4,-4.01 z m -80.4,-80.36 -4,4.02 40.1,40.17 4.1,-4.01 z m -80.3,-80.35 -4.1,4.01 40.2,40.18 4,-4.01 -40.1,-40.18"
           style="fill:#4080c6;fill-opacity:1;fill-rule:nonzero;stroke:none"
           id="path464" /></g><g
         id="g466"
         transform="scale(0.136877)"><path
           d="m 14737.8,8803.16 -42.5,42.47 4.3,4.25 42.4,-42.48 z m 85,-84.96 -42.5,42.48 4.2,4.25 42.5,-42.48 z m 84.9,-84.94 -42.5,42.47 4.2,4.24 42.6,-42.47 z m 84.9,-84.95 -42.4,42.47 4.2,4.25 42.5,-42.47 z m 106,-40.2 h -60 v 6.01 h 60 z m 120.1,0 h -60 v 6.01 h 60 z m 120.2,0 h -60 v 6.01 h 60 z m 120.1,0 h -60 v 6.01 h 60 z m 120.1,0 h -60 v 6.01 h 60 z m 120.2,0 h -60 v 6.01 h 60 z m 120.1,0 h -60 v 6.01 h 60 z m 120.2,0 h -60.1 v 6.01 h 60.1 z m 120.1,0 h -60 v 6.01 h 60 z m 120.1,0 h -60 v 6.01 h 60 z m 120.2,0 h -60.1 v 6.01 h 60.1 v -6.01"
           style="fill:#4080c6;fill-opacity:1;fill-rule:nonzero;stroke:none"
           id="path468" /></g><g
         id="g470"
         transform="scale(0.144712)"><path
           d="m 14839.9,8516.76 h -56.9 v 5.68 h 56.9 z m 113.6,0 h -56.8 v 5.68 h 56.8 z m 113.6,0 h -56.8 v 5.68 h 56.8 z m 113.6,0 h -56.8 v 5.68 h 56.8 z m 113.6,0 h -56.8 v 5.68 h 56.8 z m 113.7,0 h -56.9 v 5.68 h 56.9 z m 113.6,0 h -56.8 v 5.68 h 56.8 z m 113.6,0 h -56.8 v 5.68 h 56.8 z m 113.7,0 h -56.8 v 5.68 h 56.8 z m 113.6,0 h -56.8 v 5.68 h 56.8 z m 113.6,0 h -56.8 v 5.68 h 56.8 z m 113.7,0 h -56.8 v 5.68 h 56.8 z m 113.6,0 h -56.8 v 5.68 h 56.8 z m 96.6,0 h -39.8 v 5.68 h 39.8 v -5.68"
           style="fill:#4080c6;fill-opacity:1;fill-rule:nonzero;stroke:none"
           id="path472" /></g><g
         id="g474"
         transform="scale(0.153693)"><path
           d="m 16278.6,9011.56 h -820.3 c -11.8,0 -21.4,9.63 -21.4,21.4 0,11.77 9.6,21.4 21.4,21.4 h 820.3 c 11.8,0 21.4,-9.63 21.4,-21.4 0,-11.77 -9.6,-21.4 -21.4,-21.4"
           style="fill:#afcceb;fill-opacity:1;fill-rule:nonzero;stroke:none"
           id="path476" /></g><g
         id="g478"
         transform="scale(0.153693)"><path
           d="m 16278.6,8922.41 h -820.3 c -11.8,0 -21.4,9.63 -21.4,21.39 0,11.77 9.6,21.41 21.4,21.41 h 820.3 c 11.8,0 21.4,-9.64 21.4,-21.41 0,-11.76 -9.6,-21.39 -21.4,-21.39"
           style="fill:#afcceb;fill-opacity:1;fill-rule:nonzero;stroke:none"
           id="path480" /></g><g
         id="g482"
         transform="scale(0.153693)"><path
           d="m 16278.6,8647.34 h -820.3 c -11.8,0 -21.4,9.63 -21.4,21.4 0,11.77 9.6,21.39 21.4,21.39 h 820.3 c 11.8,0 21.4,-9.62 21.4,-21.39 0,-11.77 -9.6,-21.4 -21.4,-21.4"
           style="fill:#afcceb;fill-opacity:1;fill-rule:nonzero;stroke:none"
           id="path484" /></g><g
         id="g486"
         transform="scale(0.153693)"><path
           d="m 16278.6,8558.18 h -820.3 c -11.8,0 -21.4,9.63 -21.4,21.4 0,11.76 9.6,21.39 21.4,21.39 h 820.3 c 11.8,0 21.4,-9.63 21.4,-21.39 0,-11.77 -9.6,-21.4 -21.4,-21.4"
           style="fill:#afcceb;fill-opacity:1;fill-rule:nonzero;stroke:none"
           id="path488" /></g><g
         id="g490"
         transform="scale(0.136887)"><path
           d="m 16276,8379.53 h -920.9 c -13.3,0 -24.1,10.81 -24.1,24.03 0,13.21 10.8,24.02 24.1,24.02 h 920.9 c 13.2,0 24,-10.81 24,-24.02 0,-13.22 -10.8,-24.03 -24,-24.03"
           style="fill:#afcceb;fill-opacity:1;fill-rule:nonzero;stroke:none"
           id="path492" /></g><g
         id="g494"
         transform="scale(0.136887)"><path
           d="m 16276,8279.43 h -920.9 c -13.3,0 -24.1,10.81 -24.1,24.02 0,13.21 10.8,24.03 24.1,24.03 h 920.9 c 13.2,0 24,-10.82 24,-24.03 0,-13.21 -10.8,-24.02 -24,-24.02"
           style="fill:#afcceb;fill-opacity:1;fill-rule:nonzero;stroke:none"
           id="path496" /></g><g
         id="g498"
         transform="scale(0.144712)"><path
           d="m 16277.3,8369.86 h -871.2 c -12.5,0 -22.8,10.23 -22.8,22.73 0,12.5 10.3,22.72 22.8,22.72 h 871.2 c 12.5,0 22.7,-10.22 22.7,-22.72 0,-12.5 -10.2,-22.73 -22.7,-22.73"
           style="fill:#afcceb;fill-opacity:1;fill-rule:nonzero;stroke:none"
           id="path500" /></g><g
         id="g502"
         transform="scale(0.144712)"><path
           d="m 16277.3,8275.17 h -871.2 c -12.5,0 -22.8,10.22 -22.8,22.72 0,12.5 10.3,22.73 22.8,22.73 h 871.2 c 12.5,0 22.7,-10.23 22.7,-22.73 0,-12.5 -10.2,-22.72 -22.7,-22.72"
           style="fill:#afcceb;fill-opacity:1;fill-rule:nonzero;stroke:none"
           id="path504" /></g><g
         id="g506"
         transform="scale(0.126836)"><path
           d="m 16251,11246.7 h -738.2 c -27,0 -49,22.1 -49,49 0,26.9 22,49 49,49 h 738.2 c 27,0 49,-22.1 49,-49 0,-26.9 -22,-49 -49,-49"
           style="fill:#afcceb;fill-opacity:1;fill-rule:nonzero;stroke:none"
           id="path508" /></g><g
         id="g510"
         transform="scale(0.134498)"><path
           d="m 16253.8,10606 h -696.3 c -25.3,0 -46.1,20.8 -46.1,46.2 0,25.4 20.8,46.2 46.1,46.2 h 696.3 c 25.4,0 46.2,-20.8 46.2,-46.2 0,-25.4 -20.8,-46.2 -46.2,-46.2"
           style="fill:#afcceb;fill-opacity:1;fill-rule:nonzero;stroke:none"
           id="path512" /></g><g
         id="g514"
         transform="scale(0.147584)"><path
           d="m 16266.6,7341.22 h -2863.5 c -18.5,0 -33.5,15.04 -33.5,33.42 0,18.39 15,33.43 33.5,33.43 h 2863.5 c 18.4,0 33.4,-15.04 33.4,-33.43 0,-18.38 -15,-33.42 -33.4,-33.42"
           style="fill:#afcceb;fill-opacity:1;fill-rule:nonzero;stroke:none"
           id="path516" /></g><g
         id="g518"
         transform="scale(0.139934)"><path
           d="m 16270.3,7611.35 h -2140 c -16.3,0 -29.8,13.38 -29.8,29.74 v 11.02 c 0,16.36 13.5,29.75 29.8,29.75 h 2140 c 16.3,0 29.7,-13.39 29.7,-29.75 v -11.02 c 0,-16.36 -13.4,-29.74 -29.7,-29.74"
           style="fill:#afcceb;fill-opacity:1;fill-rule:nonzero;stroke:none"
           id="path520" /></g><g
         id="g522"
         transform="scale(0.152041)"><path
           d="m 16186.3,5688.94 c 0,0 -10.3,3.03 -28.3,-2.63 -17.1,-1.11 -37.4,-1.38 -47.2,2.31 -18.6,7.1 -34.4,-10.53 -22.7,-25.33 4,-4.99 9.3,-8.81 15.4,-11.57 -28.8,-26.71 -63.4,-71.76 -101.2,-147.53 0,0 -31.7,-57.35 35.5,-39.66 44.8,11.84 54.4,34.33 117.4,52.03 63,17.69 112.6,63.07 118,111.09 l 26.8,47.55 -66.2,65.7 -47.5,-51.96"
           style="fill:#f9c29d;fill-opacity:1;fill-rule:nonzero;stroke:none"
           id="path524" /></g><g
         id="g526"
         transform="scale(0.157187)"><path
           d="m 15795.3,7274.55 c 0,0 504.7,-266.28 443.3,-1037.33 -16.5,-208.16 -485.8,-816.99 -485.8,-816.99 0,0 -88.7,41.48 -88.2,106.62 0,0 228.2,658.52 277.2,701.52 43.5,38.11 -207.8,624.05 -220.5,784.88 -12.8,160.81 74,261.3 74,261.3"
           style="fill:#91cecf;fill-opacity:1;fill-rule:nonzero;stroke:none"
           id="path528" /></g><g
         id="g530"
         transform="scale(0.161367)"><path
           d="m 16214.3,3086.26 c 0,0 85.7,-78.27 69,-133.86 -16.8,-55.58 -94.1,-92.64 -104.6,-160.63 -10.4,-67.91 -52.2,-104.97 -89.9,-104.97 -37.6,0 -179.4,0 -179.4,0 0,0 -27.8,47.78 39.2,62.22 66.9,14.37 92.1,94.25 88,168.37 -4.3,74.12 6.2,172.96 6.2,172.96 l 142.2,32.97 29.3,-37.06"
           style="fill:#233862;fill-opacity:1;fill-rule:nonzero;stroke:none"
           id="path532" /></g><g
         id="g534"
         transform="scale(0.160518)"><path
           d="m 16300,3151.85 c -15.8,-46.6 -189.2,-114.88 -189.2,-114.88 0,0 -94.6,149.02 -397.3,683.1 -26.1,46.04 -53.3,96.5 -81.3,150.27 -297.3,571.08 -681.8,1520.13 -681.8,1520.13 l 734.7,204.84 c 0,0 34.7,-294.92 41,-443.94 3.9,-91.08 55.6,-285.63 121.4,-455.65 41.9,-108.15 89.5,-206.33 134,-261.52 202.7,-251.38 318.5,-1282.35 318.5,-1282.35"
           style="fill:#b5453c;fill-opacity:1;fill-rule:nonzero;stroke:none"
           id="path536" /></g><g
         id="g538"
         transform="scale(0.156063)"><path
           d="m 16300,4829.79 c -47.5,-240.93 -134.7,-644.35 -221.5,-848.95 -305.8,587.39 -701.3,1563.54 -701.3,1563.54 l 755.8,210.68 c 0,0 35.6,-303.34 42.1,-456.61 4,-93.68 57.2,-293.79 124.9,-468.66"
           style="fill:#93312c;fill-opacity:1;fill-rule:nonzero;stroke:none"
           id="path540" /></g><g
         id="g542"
         transform="scale(0.150258)"><path
           d="m 16283.5,3097.08 c 0,0 16.5,-191.2 -23.9,-211.1 l -517.3,1.06 c 0,0 0,59.7 83,72.94 83.2,13.25 229.1,61.9 253.8,170.24 24.7,108.35 204.4,-33.14 204.4,-33.14"
           style="fill:#233862;fill-opacity:1;fill-rule:nonzero;stroke:none"
           id="path544" /></g><g
         id="g546"
         transform="scale(0.153107)"><path
           d="m 15551.8,5690.45 c 0,0 26.7,-328.98 58.2,-724.39 42.8,-537.21 94.3,-1197.01 99.4,-1322.02 8.7,-217.03 44.1,-564.24 44.1,-564.24 0,0 83.6,-82.49 251.2,-47.68 0,0 149.3,495.6 191.9,1020.01 0.7,8.62 1.4,17.24 2,25.92 39.7,533.81 101.4,1657.92 101.4,1657.92 l -748.2,-45.52"
           style="fill:#b5453c;fill-opacity:1;fill-rule:nonzero;stroke:none"
           id="path548" /></g><g
         id="g550"
         transform="scale(0.152673)"><path
           d="m 16300,7508.67 c 0,0 -302.2,-198.75 -490.9,-140.12 0,0 52.4,79.51 102.4,142.98 -6.5,37.9 -11.6,70.79 -14.5,98.67 -8,64.35 -8,100.82 -8,100.82 l 126.4,99.38 119.8,95.11 c -9.4,-267.42 164.8,-396.84 164.8,-396.84"
           style="fill:#ffb27d;fill-opacity:1;fill-rule:nonzero;stroke:none"
           id="path552" /></g><g
         id="g554"
         transform="scale(0.156845)"><path
           d="m 16281.5,4947.12 c -373.7,-252.35 -1129.1,-180.24 -1134.7,-175.4 -12.6,160.61 -19.7,425.52 -23.6,670.6 -1.7,102.21 -2.8,200.96 -3.5,287.29 -1.4,171 -1.4,293.22 -1.1,297.05 0,0 0.2,9.24 0.6,24.86 1.2,49.48 4.3,162.9 7.5,247.38 0.5,15.88 1.2,30.61 1.8,43.74 0,0.76 0,1.4 0.1,2.17 2.3,37.96 25.6,139.44 58.2,257.74 0.3,0.73 0.4,1.4 0.6,2.13 47.9,172.9 115.6,380.79 167.7,477.66 26.9,49.87 117,194.4 117,194.4 63.6,-12.55 109.5,6.21 176.6,38.92 73.5,35.52 152.7,73.77 165.5,64.02 96.1,-70.3 161.1,-228.24 195.8,-430.12 19.7,-116.23 290,-1989.88 271.5,-2002.44"
           style="fill:#abddda;fill-opacity:1;fill-rule:nonzero;stroke:none"
           id="path556" /></g><g
         id="g558"
         transform="scale(0.15115)"><path
           d="m 16300,7881.9 c 0,0 -83.6,-152.39 -242.8,-195 -8.1,65 -8.1,101.84 -8.1,101.84 l 127.7,100.37 123.2,-7.21"
           style="fill:#ed985f;fill-opacity:1;fill-rule:nonzero;stroke:none"
           id="path560" /></g><g
         id="g562"
         transform="scale(0.152322)"><path
           d="m 15867.9,7733.15 c 0,0 313.1,-51.22 342.6,141.29 29.3,192.51 89.5,315.55 -109.2,356.39 -198.7,40.84 -248.8,-26.85 -274.5,-88.75 -25.7,-61.91 -39.6,-390.64 41.1,-408.93"
           style="fill:#ffb27d;fill-opacity:1;fill-rule:nonzero;stroke:none"
           id="path564" /></g><g
         id="g566"
         transform="scale(0.15281)"><path
           d="m 16272.1,8227.53 c 2.8,3.25 9.4,5.87 24,6.67 0,0 -11.7,7.27 -27.2,7.65 -3.1,20.23 -13.9,56.03 -48.6,64.73 0,0 18.6,-9.97 21.1,-31.48 -40.3,41.41 -126.7,71.55 -365.9,52.66 -315.3,-24.88 -211.4,-226.74 -170.6,-250.8 40.8,-24.06 143.6,41.91 219.6,35.87 76,-6.03 90.5,-115.92 116.4,-131 25.7,-15.08 15.6,11.58 50.5,27.36 34.9,15.78 38.2,-42.06 28.1,-79.67 -10.1,-37.6 37.9,-87.2 37.9,-87.2 0,0 0,0 48.5,52.19 48.4,52.2 94.1,273.28 72.1,320.41 -2,4.16 -3.9,8.37 -5.9,12.61"
           style="fill:#2c3a64;fill-opacity:1;fill-rule:nonzero;stroke:none"
           id="path568" /></g><g
         id="g570"
         transform="scale(0.152613)"><path
           d="m 15538.9,5888.47 c -1.5,175.74 -1.4,301.35 -1.2,305.28 0,0 0.2,9.5 0.7,25.56 1.2,50.84 4.4,167.41 7.7,254.23 0.6,16.32 1.2,31.45 1.8,44.95 0.1,0.79 0.1,1.44 0.1,2.23 2.5,39.02 26.3,143.31 59.9,264.89 0.2,0.75 0.4,1.44 0.6,2.19 285.1,312.38 608,483.63 608,483.63 0,0 83.5,-1086.07 -677.6,-1382.96"
           style="fill:#91cecf;fill-opacity:1;fill-rule:nonzero;stroke:none"
           id="path572" /></g><g
         id="g574"
         transform="scale(0.152177)"><path
           d="m 16300,7606.06 c 0,0 -29.1,84.64 -52.8,94.19 0,0 -329.9,-76.11 -440,-440.67 0,0 128.4,223.7 492.8,346.48"
           style="fill:#6bb7bf;fill-opacity:1;fill-rule:nonzero;stroke:none"
           id="path576" /></g><g
         id="g578"
         transform="scale(0.136514)"><path
           d="m 16292.5,7218.67 -21.7,-5.06 c -4.6,-1.02 -9.3,1.91 -10.4,6.67 l -320.1,1461.37 c -1.1,4.64 1.9,9.23 6.5,10.31 l 0.1,0.04 c 4.7,1.08 9.3,-1.81 10.4,-6.47 L 16299,7229.07 c 1,-4.69 -1.9,-9.3 -6.5,-10.4"
           style="fill:#2c3a64;fill-opacity:1;fill-rule:nonzero;stroke:none"
           id="path580" /></g><g
         id="g582"
         transform="scale(0.135963)"><path
           d="m 16300,7674.12 c 0,0 -77.5,128.15 -112.7,138.88 -35.2,10.74 -47.2,-60.65 -40.1,-105.89 7.9,-50.79 25.3,-101.04 60.4,-115.52 35,-14.48 66.7,-19.26 66.7,-19.26 l 25.7,101.79"
           style="fill:#f9c29d;fill-opacity:1;fill-rule:nonzero;stroke:none"
           id="path584" /></g><g
         id="g586"
         transform="scale(0.136043)"><path
           d="m 16300,7672.47 c 0,0 -7.8,45.06 -19.3,52.18 -11.6,7.11 -56.4,19.76 -67.7,18.18 -11.2,-1.58 47.7,-83.29 64,-84.73 16.2,-1.44 23,14.37 23,14.37"
           style="fill:#f9c29d;fill-opacity:1;fill-rule:nonzero;stroke:none"
           id="path588" /></g><g
         id="g590"
         transform="scale(0.152652)"><path
           d="m 16300,7246.95 c 0,0 -109.3,-577.36 -886.7,-750.48 -209.8,-46.71 -951.1,230.76 -951.1,230.76 0,0 13.9,99.81 78.2,119 0,0 717.2,-25.12 774.3,-60.34 50.8,-31.26 551.3,393.46 705.7,454.74 154.4,61.29 279.6,6.32 279.6,6.32"
           style="fill:#abddda;fill-opacity:1;fill-rule:nonzero;stroke:none"
           id="path592" /></g></g></g></svg>
